<?xml version="1.0" encoding="UTF-8"?>
<svg id="Layer_1" data-name="Layer 1" xmlns="http://www.w3.org/2000/svg" version="1.1" viewBox="0 0 463.09 726">
  <defs>
    <style>
      .cls-1 {
        fill: #000;
      }

      .cls-1, .cls-2, .cls-3 {
        stroke-width: 0px;
      }

      .cls-2 {
        fill: #231f20;
      }

      .cls-3 {
        fill: #fff;
      }
    </style>
  </defs>
  <rect class="cls-3" width="461.55" height="726"/>
  <g>
    <path class="cls-2" d="M25.65,710.31c-2.4-1.59-4.6-3.4-6.59-5.44-1.99-2.05-3.6-4.32-4.83-6.82-1.23-2.51-1.84-5.19-1.84-8.05,0-3.48.61-6.52,1.84-9.12,1.23-2.61,2.89-4.91,4.98-6.9,2.09-1.99,4.45-3.81,7.05-5.44,2.61-1.63,5.29-3.27,8.05-4.91,2.76-1.74,5.72-2.91,8.89-3.53,3.17-.61,6.39-.92,9.66-.92,3.78,0,7.36.46,10.73,1.38.1,0,.33.08.69.23.36.15.74.31,1.15.46.41.15.79.28,1.15.38.36.1.59.15.69.15h.46c.1,0,.23-.08.38-.23s.28-.28.38-.38v-8.43c0-1.53-.13-3.07-.38-4.6-.26-1.53-.74-2.91-1.46-4.14-.72-1.23-1.74-1.94-3.07-2.15-.51-.1-1.28-.02-2.3.23-1.02.26-1.74-.02-2.15-.84v-.31c0-.41.2-.74.61-1,.41-.25.89-.46,1.46-.61.56-.15,1.1-.33,1.61-.54.51-.2.92-.41,1.23-.61,2.04-1.84,3.3-3.58,3.76-5.21.46-1.63.69-3.83.69-6.59v-1.23c0-.61-.05-1.2-.15-1.76-.1-.56-.28-1.05-.54-1.46-.26-.41-.64-.61-1.15-.61-1.43,0-2.63.51-3.6,1.53-.97,1.02-2.12,1.79-3.45,2.3-.31.1-.82.23-1.53.38-.72.15-1.43.33-2.15.54-.72.21-1.38.41-1.99.61-.61.21-.97.31-1.07.31h-5.67c-3.58,0-7.08-.33-10.5-1-3.43-.66-6.49-1.84-9.2-3.53-2.71-1.69-4.88-3.91-6.52-6.67-1.64-2.76-2.45-6.29-2.45-10.58,0-6.13,1.33-11.04,3.99-14.72,2.66-3.68,6.03-6.59,10.12-8.74,4.09-2.15,8.59-3.83,13.49-5.06,4.91-1.23,9.66-2.55,14.26-3.99.1,0,.54-.15,1.3-.46s1.66-.66,2.68-1.07c1.02-.41,2.02-.82,2.99-1.23.97-.41,1.71-.71,2.22-.92.61-.2,1.25-.59,1.92-1.15.66-.56,1.33-1.15,1.99-1.76.66-.61,1.3-1.15,1.92-1.61s1.17-.69,1.69-.69c.61,0,1.25.59,1.92,1.76.66,1.18,1.56,2.51,2.68,3.99,1.12,1.48,2.58,2.81,4.37,3.99,1.79,1.18,4.16,1.76,7.13,1.76,2.15,0,4.01-.54,5.6-1.61,1.58-1.07,2.96-2.22,4.14-3.45,1.17-1.23,2.17-2.38,2.99-3.45.82-1.07,1.63-1.61,2.45-1.61,0,1.94-.84,4.04-2.53,6.29-1.69,2.25-3.73,4.35-6.13,6.29-2.4,1.94-4.96,3.55-7.67,4.83-2.71,1.28-5.04,1.92-6.98,1.92-2.45,0-4.63-.23-6.52-.69-1.89-.46-3.66-1.12-5.29-1.99-1.64-.87-3.17-1.97-4.6-3.3-1.43-1.33-2.97-2.86-4.6-4.6h-1.23c-2.76.72-5.65,1.56-8.66,2.53-3.02.97-5.78,2.28-8.28,3.91-2.51,1.64-4.58,3.68-6.21,6.13-1.64,2.45-2.45,5.47-2.45,9.05,0,2.66.2,5.62.61,8.89.41,3.27,1.23,6.34,2.45,9.2,1.23,2.86,2.94,5.27,5.14,7.21,2.2,1.94,5.08,2.91,8.66,2.91.92,0,2.15-.23,3.68-.69,1.53-.46,3.04-1.05,4.52-1.76,1.48-.71,2.76-1.56,3.83-2.53,1.07-.97,1.61-1.92,1.61-2.84,0-3.99-.08-8-.23-12.04-.15-4.04-.23-8-.23-11.88v-3.68l.61-.61c.31-.31.51-.56.61-.77h.61c.1,0,.25.21.46.61.31,2.05.51,4.24.61,6.59.1,2.35.18,4.73.23,7.13.05,2.4.05,4.73,0,6.98-.05,2.25-.08,4.29-.08,6.13,0,.1.2.31.61.61h.61c2.96-.92,5.98-1.89,9.05-2.91,3.07-1.02,6.08-2.15,9.05-3.37h5.52c4.19,0,8.18.51,11.96,1.53,3.78,1.02,7.1,2.63,9.97,4.83,2.86,2.2,5.14,4.98,6.82,8.36,1.69,3.37,2.53,7.41,2.53,12.11,0,3.58-.49,7-1.46,10.27-.97,3.27-2.58,6.29-4.83,9.05-.51.61-.95,1.07-1.3,1.38-.36.31-.64.59-.84.84-.21.26-.44.54-.69.84-.26.31-.59.77-1,1.38-3.27,2.56-7.21,4.75-11.81,6.59-4.6,1.84-9.2,3.68-13.8,5.52-4.6,1.84-8.92,3.89-12.96,6.13-4.04,2.25-7.13,5.06-9.28,8.43h-.77c-1.64-1.84-3.58-3.58-5.83-5.21-2.25-1.63-4.63-3.01-7.13-4.14-2.51-1.12-5.11-2.02-7.82-2.68-2.71-.66-5.29-1-7.74-1-2.76,0-5.6.23-8.51.69-2.91.46-5.6,1.3-8.05,2.53-2.45,1.23-4.47,2.94-6.06,5.14-1.59,2.2-2.38,5.03-2.38,8.51,0,3.27.79,6.11,2.38,8.51,1.58,2.4,3.65,4.5,6.21,6.29,2.55,1.79,5.44,3.24,8.66,4.37,3.22,1.12,6.49,2.04,9.81,2.76,3.32.71,6.54,1.2,9.66,1.46,3.12.25,5.85.38,8.2.38,4.7,0,9.38-.82,14.03-2.45,4.65-1.64,8.92-3.78,12.8-6.44,1.02-.72,2.43-2.05,4.22-3.99,1.79-1.94,3.58-3.91,5.37-5.9,1.79-1.99,3.35-3.78,4.68-5.37,1.33-1.59,2.15-2.38,2.45-2.38v1.53c-.72,1.12-1.3,2.04-1.76,2.76-.46.71-.95,1.46-1.46,2.22-.51.77-.92,1.35-1.23,1.76-3.27,4.5-7.05,8.59-11.35,12.27-4.29,3.68-9.2,6.23-14.72,7.67-.51.2-1.23.38-2.15.54s-1.89.31-2.91.46c-1.02.15-1.97.36-2.84.61-.87.25-1.56.59-2.07,1h-4.75c-4.29,0-8.38-.33-12.27-1-3.89-.67-7.97-1.56-12.27-2.68-2.45-1.02-4.88-2.33-7.28-3.91ZM71.57,664.24c.41.31,1.07.84,1.99,1.61.92.77,1.92,1.59,2.99,2.45,1.07.87,2.09,1.69,3.07,2.45.97.77,1.61,1.3,1.92,1.61h1.38c1.94,0,4.16-.69,6.67-2.07,2.5-1.38,4.91-3.12,7.21-5.21,2.3-2.09,4.32-4.29,6.06-6.59,1.74-2.3,2.91-4.37,3.53-6.21.41-1.02.69-1.94.84-2.76.15-.82.28-1.61.38-2.38.1-.77.15-1.56.15-2.38v-2.91c0-5.21-.69-9.89-2.07-14.03-1.38-4.14-4.01-8-7.9-11.58-1.02-.92-2.12-1.66-3.3-2.22-1.18-.56-2.48-.84-3.91-.84h-.31c-.51,0-1.23.03-2.15.08-.92.05-1.79.13-2.61.23-.82.1-1.56.18-2.22.23-.67.05-1.05.13-1.15.23-.92.1-2.05.31-3.37.61-1.33.31-2.63.74-3.91,1.3-1.28.56-2.35,1.25-3.22,2.07-.87.82-1.3,1.79-1.3,2.91v2.3c0,.51.02,1.36.08,2.53.05,1.18.13,2.43.23,3.76.1,1.33.18,2.58.23,3.76.05,1.18.08,1.97.08,2.38,1.02,1.74,2.09,2.79,3.22,3.14,1.12.36,2.71.79,4.75,1.3v1.23c-2.35.31-4.37.97-6.06,1.99-1.69,1.02-2.53,2.91-2.53,5.67v1.53c0,.51.02,1.41.08,2.68.05,1.28.13,2.61.23,3.99.1,1.38.18,2.71.23,3.99.05,1.28.08,2.12.08,2.53l.61.61Z"/>
    <path class="cls-2" d="M132.68,634.88c1.58-3.12,3.6-5.95,6.06-8.51,2.45-2.55,5.24-4.85,8.36-6.9,3.12-2.04,6.21-4.09,9.28-6.13.41-.31.84-.79,1.3-1.46.46-.66.92-1.35,1.38-2.07.46-.71.92-1.35,1.38-1.92.46-.56.94-.84,1.46-.84.41,0,.66.05.77.15,3.58,1.74,6.9,3.68,9.97,5.83,3.07,2.15,5.31,5.21,6.75,9.2v3.68c0,2.66-.54,5.14-1.61,7.44s-2.48,4.4-4.22,6.29c-1.74,1.89-3.73,3.55-5.98,4.98-2.25,1.43-4.55,2.61-6.9,3.53-.82.31-2.1.56-3.83.77-1.74.21-3.48.44-5.21.69-1.74.26-3.25.61-4.52,1.07-1.28.46-1.92,1.15-1.92,2.07,0,2.56.59,4.88,1.76,6.98,1.17,2.1,2.71,3.91,4.6,5.44,1.89,1.53,3.99,2.74,6.29,3.6,2.3.87,4.57,1.3,6.82,1.3,1.74,0,3.27-.02,4.6-.08,1.33-.05,2.81-.48,4.45-1.3.82-.31,1.56-.77,2.22-1.38.66-.61,1.35-1.23,2.07-1.84.71-.61,1.43-1.15,2.15-1.61.71-.46,1.53-.69,2.45-.69,0,.72-.1,1.25-.31,1.61-.21.36-.56.79-1.07,1.3-3.58,3.07-7.08,6.21-10.5,9.43-3.43,3.22-6.77,6.52-10.04,9.89h-.61c-5.42-2.35-10.02-4.47-13.8-6.36-3.78-1.89-6.85-4.16-9.2-6.82-2.35-2.66-4.06-6.03-5.14-10.12-1.07-4.09-1.61-9.56-1.61-16.41,0-4.09.79-7.69,2.38-10.81ZM146.4,622.92c-2.05,2.2-3.07,4.83-3.07,7.9v15.49c0,.21.31.61.92,1.23s1.12,1.07,1.53,1.38h.46c2.25,0,4.6-.38,7.05-1.15s4.68-1.86,6.67-3.3c1.99-1.43,3.65-3.17,4.98-5.21,1.33-2.04,1.99-4.34,1.99-6.9,0-3.68-1.25-6.72-3.76-9.12-2.51-2.4-5.6-3.6-9.28-3.6-2.97,0-5.47,1.1-7.51,3.3Z"/>
    <path class="cls-2" d="M193.78,670.53c0-.61.59-1.12,1.76-1.53,1.17-.41,2.53-1,4.06-1.76s3.01-1.74,4.45-2.91c1.43-1.17,2.4-2.84,2.91-4.98v-24.07c-.1-3.58-.61-6.69-1.53-9.35-.92-2.66-3.07-4.75-6.44-6.29h-.92c-1.02,0-2.1.26-3.22.77-1.13.51-2.2,1.07-3.22,1.69-1.02.61-1.92,1.18-2.68,1.69-.77.51-1.3.77-1.61.77-.61,0-.92-.41-.92-1.23,0-.71.15-1.17.46-1.38.31-.2.77-.56,1.38-1.07.82-.71,1.99-1.92,3.53-3.6s3.12-3.37,4.75-5.06c1.63-1.69,3.14-3.17,4.52-4.45,1.38-1.28,2.38-1.92,2.99-1.92,2.25,0,4.37.92,6.36,2.76s3.76,3.86,5.29,6.06c1.53,2.2,2.84,4.22,3.91,6.06s1.86,2.76,2.38,2.76l.46-.15c2.76-2.96,5.7-5.72,8.82-8.28,3.12-2.55,6-5.37,8.66-8.43h.61c.51,0,.97.36,1.38,1.07.41.72.92,1.51,1.53,2.38.61.87,1.4,1.66,2.38,2.38.97.72,2.22,1.07,3.76,1.07.82,0,1.51-.25,2.07-.77.56-.51,1.05-1.05,1.46-1.61.41-.56.84-1.1,1.3-1.61.46-.51,1.05-.77,1.76-.77,0,2.05-.38,4.09-1.15,6.13-.77,2.05-1.79,3.94-3.07,5.67-1.28,1.74-2.81,3.14-4.6,4.22-1.79,1.07-3.76,1.61-5.9,1.61-1.33,0-2.61-.31-3.83-.92-1.23-.61-2.38-1.25-3.45-1.92-1.07-.66-2.02-1.3-2.84-1.92-.82-.61-1.48-.92-1.99-.92-.82,0-1.43.31-1.84.92-.41.61-.87,1.18-1.38,1.69-.1.21-.36.59-.77,1.15-.41.56-.84,1.13-1.3,1.69-.46.56-.9,1.13-1.3,1.69-.41.56-.67.95-.77,1.15-.1.51-.18,1.38-.23,2.61-.05,1.23-.13,2.53-.23,3.91-.1,1.38-.18,2.68-.23,3.91-.05,1.23-.08,2.1-.08,2.61v2.91c0,3.27.08,6.19.23,8.74.15,2.56.33,5.73.54,9.51.2.82.66,1.59,1.38,2.3.71.72,1.53,1.3,2.45,1.76s1.84.82,2.76,1.07c.92.26,1.79.38,2.61.38,2.35,0,4.27-.61,5.75-1.84,1.48-1.23,3.09-2.71,4.83-4.45h1.38v1.84c-.61.61-1.64,1.59-3.07,2.91-1.43,1.33-2.97,2.76-4.6,4.29-1.64,1.53-3.14,2.99-4.52,4.37-1.38,1.38-2.38,2.33-2.99,2.84-.1.1-.33.36-.69.77-.36.41-.74.87-1.15,1.38-.41.51-.79,1-1.15,1.46-.36.46-.59.74-.69.84l-1.84,1.84h-.31c-.41,0-.9-.23-1.46-.69-.56-.46-1.15-1-1.76-1.61s-1.18-1.17-1.69-1.69c-.51-.51-.87-.87-1.07-1.07-3.48-2.55-6.98-4.55-10.5-5.98-3.53-1.43-7.44-2.3-11.73-2.61-.1-.1-.15-.36-.15-.77Z"/>
    <path class="cls-2" d="M271.82,705.64c-2.25-1.33-4.24-2.89-5.98-4.68-1.74-1.79-3.14-3.78-4.22-5.98-1.07-2.2-1.61-4.68-1.61-7.44,0-4.5,1.17-8.38,3.53-11.65,2.35-3.27,5.31-5.98,8.89-8.13,3.58-2.15,7.49-3.81,11.73-4.98,4.24-1.17,8.2-1.97,11.88-2.38l.77-.77v-20.39c-.82-.61-1.46-1.23-1.92-1.84s-.69-1.48-.69-2.61c0-1.23.43-2.15,1.3-2.76.87-.61,1.3-1.53,1.3-2.76v-12.57c.51,0,.87.21,1.07.61,0,.41.05,1.07.15,1.99.1.92.18,1.92.23,2.99.05,1.07.13,2.1.23,3.07.1.97.15,1.61.15,1.92.1.92.33,1.69.69,2.3.36.61.77,1.2,1.23,1.76.46.56.87,1.15,1.23,1.76.36.61.54,1.33.54,2.15,0,.72-.15,1.3-.46,1.76s-.69.9-1.15,1.3c-.46.41-.9.82-1.3,1.23-.41.41-.67.92-.77,1.53v13.65c0,1.43.1,2.63.31,3.6.2.97.92,1.87,2.15,2.68,1.23.72,2.61,1.07,4.14,1.07,1.63,0,3.17.26,4.6.77.92.51,2.09,1.23,3.53,2.15,1.43.92,2.89,1.89,4.37,2.91,1.48,1.02,2.89,1.89,4.22,2.61,1.33.72,2.4,1.07,3.22,1.07h1.38c2.55-2.04,4.68-4.29,6.36-6.75s2.53-5.42,2.53-8.89c0-2.55-.38-5.14-1.15-7.74s-1.69-5.14-2.76-7.59-2.22-4.88-3.45-7.28c-1.23-2.4-2.35-4.78-3.37-7.13-.72-1.74-1.1-3.6-1.15-5.6-.05-1.99-.08-3.91-.08-5.75,0-3.47.56-6.67,1.69-9.58,1.12-2.91,2.63-5.62,4.52-8.13,1.89-2.5,4.04-4.83,6.44-6.98,2.4-2.15,4.88-4.29,7.44-6.44.82-.71,1.48-1.28,1.99-1.69.51-.41,1.33-.61,2.45-.61,0,1.13-.46,2.2-1.38,3.22-.92,1.02-1.94,2.15-3.07,3.37-1.13,1.23-2.15,2.63-3.07,4.22-.92,1.59-1.38,3.45-1.38,5.6,0,3.99.66,7.69,1.99,11.12,1.33,3.43,2.76,6.72,4.29,9.89,1.53,3.17,2.96,6.34,4.29,9.51,1.33,3.17,1.99,6.54,1.99,10.12,0,4.19-.61,7.97-1.84,11.35-1.23,3.37-2.91,6.47-5.06,9.28-2.15,2.81-4.65,5.39-7.51,7.74-2.86,2.35-5.98,4.55-9.35,6.59-1.64,1.02-3.2,1.97-4.68,2.84-1.48.87-2.86,1.76-4.14,2.68-1.28.92-2.53,1.94-3.76,3.07-1.23,1.13-2.45,2.45-3.68,3.99-.31.41-.72.61-1.23.61s-1.23-.38-2.15-1.15c-.92-.77-1.94-1.66-3.07-2.68-1.13-1.02-2.22-2.02-3.3-2.99-1.07-.97-1.97-1.61-2.68-1.92-2.66-1.43-5.34-2.53-8.05-3.3-2.71-.77-5.55-1.15-8.51-1.15-2.35,0-4.75.28-7.21.84-2.45.56-4.68,1.46-6.67,2.68-1.99,1.23-3.66,2.81-4.98,4.75-1.33,1.94-1.99,4.29-1.99,7.05,0,1.23.33,2.5,1,3.83.66,1.33,1.35,2.45,2.07,3.37,3.88,4.19,8.23,6.9,13.03,8.13,4.8,1.23,10.07,1.84,15.79,1.84,8.28,0,15.23-1.56,20.85-4.68,5.62-3.12,10.68-8.2,15.18-15.26h.92c0,2.25-.84,4.57-2.53,6.98-1.69,2.4-3.76,4.68-6.21,6.82s-5.04,4.04-7.74,5.67c-2.71,1.63-5.04,2.81-6.98,3.53-1.94.82-3.99,1.33-6.13,1.53-2.15.2-4.24.31-6.29.31h-2.91c-.51,0-1.41-.1-2.68-.31-1.28-.21-2.61-.41-3.99-.61-1.38-.21-2.71-.38-3.99-.54-1.28-.15-2.12-.28-2.53-.38-2.35-.92-4.65-2.05-6.9-3.37ZM268.99,587.34c.56-1.89,1.33-3.65,2.3-5.29.97-1.63,2.15-3.19,3.53-4.68,1.38-1.48,2.89-3.09,4.52-4.83,1.94-1.12,4.11-2.12,6.52-2.99,2.4-.87,4.78-1.3,7.13-1.3,2.96,0,6,.03,9.12.08,3.12.05,6.16.64,9.12,1.76,1.84.72,3.6,1.79,5.29,3.22,1.69,1.43,3.35,2.89,4.98,4.37,1.63,1.48,3.3,2.76,4.98,3.83s3.5,1.61,5.44,1.61c1.02,0,2.09-.31,3.22-.92,1.12-.61,2.2-1.25,3.22-1.92,1.02-.66,2.02-1.3,2.99-1.92.97-.61,1.86-.92,2.68-.92.31,0,.61.08.92.23s.46.44.46.84c0,.51-.26,1.02-.77,1.53s-1.13,1-1.84,1.46c-.72.46-1.41.87-2.07,1.23-.67.36-1.2.69-1.61,1-1.64,1.23-3.17,2.4-4.6,3.53-1.43,1.13-2.86,2.15-4.29,3.07-1.43.92-2.97,1.64-4.6,2.15-1.64.51-3.48.77-5.52.77-3.37,0-6.47-.71-9.28-2.15-2.81-1.43-5.6-3.04-8.36-4.83-2.76-1.79-5.57-3.4-8.43-4.83-2.86-1.43-5.98-2.15-9.35-2.15-1.74,0-3.5.38-5.29,1.15-1.79.77-3.37,1.82-4.75,3.14-1.38,1.33-2.51,2.84-3.37,4.52-.87,1.69-1.3,3.45-1.3,5.29,0,3.27.79,5.93,2.38,7.97,1.58,2.05,3.58,3.66,5.98,4.83,2.4,1.18,5.06,1.99,7.97,2.45s5.7.69,8.36.69c4.7,0,8.43-1,11.19-2.99s5.31-4.93,7.67-8.82h1.53c0,1.23-.31,2.43-.92,3.6-.61,1.18-1.38,2.3-2.3,3.37s-1.89,2.07-2.91,2.99c-1.02.92-1.94,1.74-2.76,2.45-1.94,1.74-4.14,2.79-6.59,3.14-2.45.36-4.86.54-7.21.54-2.97,0-5.9-.41-8.82-1.23-2.91-.82-5.52-2.07-7.82-3.76-2.3-1.69-4.14-3.76-5.52-6.21s-2.07-5.31-2.07-8.59c0-2.45.28-4.62.84-6.52Z"/>
    <path class="cls-2" d="M358.61,669.61c1.63-.41,3.32-.92,5.06-1.53,1.74-.61,3.35-1.43,4.83-2.45,1.48-1.02,2.71-2.25,3.68-3.68.97-1.43,1.46-3.17,1.46-5.21v-1.38c0-1.02-.03-2.84-.08-5.44-.05-2.61-.13-5.37-.23-8.28-.1-2.91-.18-5.67-.23-8.28-.05-2.61-.08-4.42-.08-5.44-.82-1.74-1.89-3.32-3.22-4.75-1.33-1.43-2.97-2.15-4.91-2.15-.82,0-1.64.26-2.45.77-.82.51-1.61,1.1-2.38,1.76-.77.67-1.46,1.25-2.07,1.76-.61.51-1.13.77-1.53.77h-.31l-.61-.61v-.31c0-.51.36-1.28,1.07-2.3.71-1.02,1.23-1.63,1.53-1.84l14.87-14.87c.2-.1.41-.15.61-.15.92,0,1.76.31,2.53.92s1.56,1.18,2.38,1.69c2.96,1.84,5.14,4.27,6.52,7.28,1.38,3.02,2.17,6.21,2.38,9.58.1.41.31.61.61.61h1.69c.31-.31.94-.87,1.92-1.69.97-.82,1.61-1.33,1.92-1.53.31-.2.94-.64,1.92-1.3.97-.66,2.02-1.35,3.14-2.07,1.12-.71,2.2-1.38,3.22-1.99,1.02-.61,1.79-1.07,2.3-1.38.1-.1.43-.31,1-.61.56-.31,1.15-.61,1.76-.92s1.2-.61,1.76-.92c.56-.31.94-.51,1.15-.61.1-.1.48-.38,1.15-.84.66-.46,1.38-.94,2.15-1.46.77-.51,1.53-1.02,2.3-1.53.77-.51,1.35-.92,1.76-1.23.2-.1.64-.41,1.3-.92.66-.51,1.1-.82,1.3-.92.2-.1.36-.15.46-.15.2,0,.36.03.46.08.1.05.2.08.31.08,1.63,1.33,3.32,2.66,5.06,3.99,1.74,1.33,3.55,2.53,5.44,3.6,1.89,1.07,3.86,1.94,5.9,2.61,2.04.67,4.14,1,6.29,1h.31c.1-.1.31-.2.61-.31.31-.1.56-.2.77-.31.1-.1.36-.31.77-.61.41-.31.84-.61,1.3-.92s.89-.61,1.3-.92c.41-.31.66-.56.77-.77h1.38v1.99l-5.06,5.06c-.82.72-1.69,1.38-2.61,1.99s-1.79,1.3-2.61,2.07c-.82.77-1.46,1.61-1.92,2.53-.46.92-.59,2.05-.38,3.37v23.61c0,1.13.1,2.56.31,4.29.2,1.74.61,3.43,1.23,5.06.61,1.64,1.43,3.07,2.45,4.29,1.02,1.23,2.4,1.84,4.14,1.84,1.84,0,3.47-.48,4.91-1.46,1.43-.97,2.71-2.12,3.83-3.45h1.38v1.84c-.82.92-1.48,1.69-1.99,2.3-.51.61-1.05,1.23-1.61,1.84-.56.61-1.05,1.13-1.46,1.53l-.69.69-1.15,1.15c-.41.41-.82.79-1.23,1.15-.41.36-.67.59-.77.69-.21.21-.51.54-.92,1-.41.46-.84.97-1.3,1.53-.46.56-.9,1.07-1.3,1.53-.41.46-.72.74-.92.84-.51.82-1.05,1.69-1.61,2.61-.56.92-1.41,1.38-2.53,1.38s-2.12-.31-2.99-.92c-.87-.61-1.76-1.17-2.68-1.69-2.45-1.53-4.32-3.35-5.6-5.44-1.28-2.09-2.17-4.37-2.68-6.82-.51-2.45-.79-4.98-.84-7.59-.05-2.61-.08-5.14-.08-7.59-.1-.92-.18-2.63-.23-5.14-.05-2.5-.13-5.14-.23-7.9-.1-2.76-.18-5.39-.23-7.9-.05-2.5-.08-4.22-.08-5.14-.72-1.02-1.69-2.04-2.91-3.07-1.23-1.02-2.58-1.92-4.06-2.68-1.48-.77-2.99-1.38-4.52-1.84-1.53-.46-2.97-.69-4.29-.69-3.89,0-7.57,1.05-11.04,3.14-3.48,2.1-6.39,4.58-8.74,7.44-.1,3.17-.21,6.62-.31,10.35-.1,3.73-.15,7.28-.15,10.66,0,5.11,1.1,9.07,3.3,11.88,2.2,2.81,5.85,4.58,10.96,5.29v1.84c-1.64.1-3.37.36-5.21.77-1.84.41-3.6,1-5.29,1.76s-3.22,1.76-4.6,2.99c-1.38,1.23-2.43,2.66-3.14,4.29,0,.21-.1.59-.31,1.15-.21.56-.41,1.15-.61,1.76-.21.61-.38,1.23-.54,1.84s-.28.97-.38,1.07c-.21.31-.36.46-.46.46h-.46c-.31,0-.87-.77-1.69-2.3-.82-1.53-1.92-3.24-3.3-5.14-1.38-1.89-3.07-3.65-5.06-5.29-1.99-1.63-4.32-2.61-6.98-2.91-.92.1-1.69.13-2.3.08-.61-.05-1.18-.15-1.69-.31-.51-.15-.87-.43-1.07-.84v-.77Z"/>
  </g>
  <g>
    <path class="cls-1" d="M187.87,363.48c2.93,9.65,6.97,19.67,8.03,29.75.39,3.69.94,8.95-1.61,12.03-3.19,3.87-6.77-.15-9.26-2.8-13.94-14.88-23.26-34.99-33.32-52.54-10.51-18.33-20.22-37.41-27.64-57.22-3.48-9.31-5.74-18.82-7.56-28.57-.97-5.17-1.84-10.35-2.68-15.55-.47-2.9-1.1-5.82-1.15-8.77-.04-2.21.48-3.86-.31-5.94-2.02,2.64-1.33,6.62-4.34,8.65-5.07-2.25-3.12-15.1-2.89-19.25.44-8.06,1.74-16.06,3.83-23.86.88-3.31,1.89-6.6,3.14-9.79,1.11-2.81,3.53-5.85,4.22-8.73.8-3.35.11-6.39,1.42-9.88,1.33-3.57,2.8-7.13,4.66-10.46,3.25-5.81,8.24-8.74,9.03-15.72.36-3.18.58-5.75,1.39-8.87,1.11-4.27,2.24-6.2-2.14-7.85-6.85-2.58-14.26-4.51-21.25-6.71-2.15-.68-4.92-.58-4.46-3.31.44-2.62,6.16-6.74,7.99-8.61,4.77-4.85,9.86-9.27,14.91-13.81,2.71-2.44,3.52-3.4,3.83-6.85.33-3.64.93-6.81,2.71-10.05,6.44-11.77,18.43-18.44,30.16-23.71,12.47-5.6,25.2-8.06,38.93-6.61,13.44,1.42,24.58,7.14,35.61,13.98,6.17,3.82,11.75,8.92,16.48,14.4,2.49,2.88,4.37,6.31,6.64,9.36,1.86,2.5,4.42,4.56,5.89,7.34,1.43,2.72,1.66,5.09,3.43,7.63,1.55,2.22,3.94,5.92,4.02,8.73.05,1.57-.55,2.34-.21,4.13.32,1.72.9,3.6,1.34,5.31.54,2.13,3.37,6.78-.14,7.62,1.33,5.72,4.81,9.17,8.61,13.38,4.28,4.74,8.05,9.77,11.67,15.03,6.76,9.82,14.99,19.79,18.54,31.32,1.61,5.23,4.59,11.34,4.32,16.92-.26,5.41-1.12,10.69-.87,16.26.57,13.03,1.72,25.93,1.72,39.01,4.48-5.11,7.71-10.94,11.32-16.65,3.39-5.35,7.98-9.72,11.05-15.35,3.09-5.66,5.08-11.87,5.56-18.31.53-7.06,1.02-8.95,8.33-9.28,7.53-.33,11.64-7.15,16.45-12.25,5.55-5.88,11.06-11.79,16.42-17.85,5.15-5.82,10.27-11.67,15.46-17.45,4.57-5.1,9.77-13.43,15.83-16.64.22.11.43.23.65.34-7.51,38.3-31.3,69.99-52.83,101.68-11.43,16.83-22.62,33.81-33.98,50.69-5.77,8.57-11.58,17.11-17.33,25.69-1.73,2.58-6.86,7.74-6.89,10.71-.03,2.72,2.47,3.69,4.57,5.26-1.48,4.58-6.48,1.59-9.35,2.94-6.12,2.86,2.54,7,3.79,8.68,3.73,5.03-4.73,5.23-7.34,5.68-2.44.42-2.1-.31-3.18,2.26-1.23,2.92-1.75,6.43-2.6,9.48-3.12,11.24-6.99,22.19-10.51,33.3-.71,2.23-3.57,15.7-6.81,16-3.42.32-3-11.82-5.12-14.12,0,10.51,1.62,21.39,3.6,31.71,1.01,5.26,2.52,10.36,3.82,15.55,1.12,4.48,3.18,9.71,2.76,14.33,2.87,4.42,3.68,10.42,5.21,15.46,1.77,5.86,3.79,11.61,5.94,17.34,2.14,5.69,4.29,11.36,6.05,17.17,1.57,5.18,3.99,11.06,3.62,16.56-.78,11.81-15.8,5.89-21.94,2.47-4.49-2.51-8.73-5.5-12.43-9.09-3.65-3.55-5.57-7.95-8.79-11.75-.97,11.1-10.6,19.77-19.13,25.59-3.33,2.27-9.7,6.21-13.91,4.55-5.22-2.05-4.79-10.92-4.59-15.33.61-13.84,4.17-27.52,5.51-41.32,1.32-13.59,1.51-28.23.11-41.82-2.11.34-4.05.66-6.58,1.06,1.37,1.55,5.94,4.73,4.73,6.99-1.55,2.9-6.7-.51-8.52-.8-5.06-.81-12.64,12.37-15.82,16.3-11.77,14.57-24.82,28.88-35.12,44.53-2.04,3.09-.63,6.24-2.23,9.13-1.69,3.03-7.23,3.35-10.02,4.84-7.12,3.8-9.69,14.11-11.75,21.25-1.33,4.62-2.24,5.71-6.58,7.66-4.25,1.91-8.32,3.68-12.14,6.41-6.49,4.63-11.45,11.15-18.09,15.46-2.04-3.36.31-7.18,1.64-10.33,1.68-4,3.29-8.01,4.78-12.09,2.83-7.75,4.15-16.62,9.32-23.26,4.46-5.73,13.68-11.26,14.74-18.93.39-2.8-1.51-6.03-.01-8.64,1.67-2.92,4.31-1.86,6.99-2.28,3.94-.63,5.72-4.32,8.09-7.32,2.94-3.73,5.88-7.47,8.83-11.2,6.09-7.73,12.22-15.42,18.08-23.33,5.53-7.46,11.75-14.62,16.92-22.31,2.62-3.89-.28-5.38.21-9.7.53-4.72,4.07-8.21,3.83-13.25-.24-5.09-.42-8.48,1.39-13.39,1.69-4.58,3.66-9.29,4.7-14.08,1.09-5-3.4-5.86-7.36-8.14-3.21-1.85-8.26-6.25-12.01-6.25ZM182.96,123.98c-1.9,2.69-8.86-7.18-10.27-8.69-.27.21-.55.42-.82.63l4.97,8.99c-.27.18-.54.36-.8.54-2.28-2.85-4.56-5.69-6.9-8.61-1.11,3.75,2.35,5.91,3.45,9.48-1.77-1.22-3.81-2.33-5.33-3.86-1.26-1.26-1.59-3.21-3.74-3.22.16,3.8,2.61,6.9,2.35,10.6-2.58-1.63-3.97-5.59-6.99-6.27-.94,5.12,4.38,8.96,4.12,14-3.09-1.84-4.12-5.8-5.91-8.88-.26.12-.52.24-.78.35,1.84,6.94,3.68,13.89,5.52,20.83-.23.12-.45.23-.68.35-4.6-2.68-5.2-6.69-6.64-11.5-.2.07-.4.13-.6.2.87,4.12,2.88,9.48.07,13.3-.31-.62-.48-.95-.68-1.35-.38,1.77-.74,3.45-1.11,5.13-.22,0-.43,0-.65,0-.81-4.28-1.62-8.56-2.44-12.85-.19.01-.38.03-.58.04.42,4.35.05,8.5-3.45,12.3-.44-4.89.14-9.91-2.14-14.28-.23.05-.46.09-.7.14l-3.46,8.29-.26-.16v-13.53c-4.68,3.52-1.65,11.77-3.97,16.37-1.9,3.78-5.88,6.28-8.32,9.71-2.12,2.98-3.21,6.49-4.52,9.86.21.17.42.34.63.51,1.58-1.88,3.16-3.76,4.73-5.65,1.37,2.3-5.18,12.56-6.27,15.07-2.51,5.79-5.17,11.76-5.78,18.05,1.91-2.97,3.21-6.15,6.23-8.28-.77,3.81-1.51,7.41-2.24,11.01.21.06.42.13.63.19.96-1.61,1.91-3.22,2.87-4.83-1.71,7.99-2.46,15.95-2.26,23.99,1.2-3.11,2.4-6.23,3.59-9.34.28.09.55.17.83.26-1.22,8.43-2.6,16.87-3.5,25.34-.89,8.37,1.94,14.59,3.87,22.51-.16.04-.33.08-.49.12-.38-.28-.75-.55-1.47-1.07,1.21,6.92,3.8,13.55,6.05,20.21,2.09,6.21,3.73,14.25,7.87,19.38.23-.14.46-.28.68-.42-1.59-4.06-5.04-9.67-3.69-14.2,4.43,11.03,8.01,22.43,14.53,32.48,6.06,9.34,13.54,17.77,22.38,24.55-.16-2.15-4.13-4.84-5.41-6.62-1.92-2.66-3.29-5.67-5.16-8.37.13-.11.25-.23.38-.34,4.65,4.08,9.3,8.15,13.95,12.23.16-.17.32-.34.47-.52-5.06-5.58-10.12-11.16-15.18-16.74l.67-.75c2.75,1.39,4.62,3.99,7.01,5.86,2.96,2.31,6.2,4.35,9.29,6.5.12-.1.24-.19.35-.29-3.01-3.8-6.02-7.61-9.03-11.41.18-.17.35-.35.53-.52,5.24,3.69,10.48,7.37,15.73,11.06.2-.24.41-.48.61-.72-5.05-4.9-10.02-9.83-15.3-14.49-4.25-3.76-8.3-7.84-9.23-13.69,3.78,3.91,7.24,8.16,11.43,11.64,4.16,3.46,8.94,6.06,13.44,9.03-5.4-7.72-12-14.46-15.12-23.92,5.68,6.68,10.57,13.86,18.48,17.67.14-.13.28-.25.42-.38-3.75-6.15-7.51-12.3-11.26-18.45.1-.08.2-.17.3-.25,6.14,5.65,12.28,11.31,18.42,16.96.14-.09.27-.17.41-.26-3.08-5.37-6.15-10.75-9.23-16.12.17-.13.34-.26.51-.39,4.01,2.55,6.09,7.51,10.75,9.21-4.41-10.92-13.53-19.13-19.33-29.28,5.5,4.81,9.16,12.68,15.98,15.72-.81-3.43-2.93-5.58-4.41-8.79-1.67-3.64-2.84-7.41-3.97-11.24.19-.07.37-.15.56-.22,5.44,7.96,9.85,16.7,17.17,23.26-2.61-8.11-9.02-14.58-9.55-23.52,2.46,3.85,4.95,7.64,9.13,9.89-.09-1.83-.63-2.41-.03-4.21,2.36,1.43,3.25,4.52,4.78,6.81,2.36,3.55,4.87,6.99,7.31,10.49.22-.13.43-.26.65-.39-3.05-7.27-7.37-13.77-11.31-20.58-3.75-6.5-6.53-13.2-9.48-20.08.28-.16.56-.32.84-.48,4.25,5.6,8.5,11.19,12.74,16.76,3.14-1.33-1.93-9.36-2.8-11.47-2.02-4.91-3.91-9.79-5.53-14.85.15-.07.31-.14.46-.21,3.27,7.43,8.38,13.57,13.39,19.8.88-2.75-2.91-9.65-4.01-12.4-1.65-4.13-3.72-8.04-5.62-12.05-4.02-8.47-7.62-17.15-9.69-26.32,2.83,3.02,8.78,19.89,13.32,19.18-.29-7.8-4.65-14.58-5.39-22.22,3.35,3.18,4.86,9.3,6.56,13.5,1.83,4.52,3.18,9.52,5.95,13.54.23-.12.45-.23.68-.35-.9-3.2-1.79-6.4-2.69-9.6.1-.04.2-.09.3-.13,1.51,2,3.01,3.99,4.74,6.29-.19-8.72-4.14-15.74-6.73-23.26,6.14,6.35,9.81,15.31,15.2,22.35.29-.17.58-.34.87-.5-2.08-5.11-4.16-10.23-6.23-15.34.07-.07.14-.14.2-.21,4.9,4.82,9.81,9.64,14.71,14.45-1.19-10-5.59-17.59-10.34-26.24,3.71,3.63,6.93,7.69,10.43,11.51,2.29,2.5,5.13,7.61,8.87,6.07-5.16-8-12.03-14.95-15.03-24.34,7.88,8.21,13.18,18.45,21.11,26.77,4.89-2.64-14.91-27.14-17.35-30.56.15-.16.29-.33.44-.49,3.34,1.41,5.84,5.92,8.31,8.58,2.65,2.84,6.37,8.42,10.16,9.37.94-6.13-8.07-14.08-11.23-19.02,4.8.64,9.83,5.72,13.73,8.39,3,2.06,5.13,5.64,8.87,5.71-3.81-7.52-7.39-14.59-11.2-22.13,2.74,1.41,5.09,2.62,7.45,3.84.12-.1.24-.19.36-.29-1.6-2.8-3.21-5.59-4.81-8.39l.48-.34c1.79,1.36,3.58,2.71,5.38,4.07-1.75-6.48-8.66-16.56-11.28-17.49.23,1.44.48,2.98.72,4.51-.17.03-.33.06-.5.08.88,1.05,1.75,2.09,2.84,3.39-3.94-3.07-8.34-4.66-12.24-7.75-3.72-2.94-5.83-7.26-9.52-10.53.18-.21.36-.41.55-.62,2.07,1.03,4.14,2.05,6.21,3.08-.78-4.07-12.5-10.73-16.43-10.69-2.81.03-4.69,1.78-6.69,2.53-2.31.87-4.34.35-7.28-.25.18-.31.35-.61.53-.92-1.85-2.41-4.04-4.39-6.24-6.48.12-.16.24-.33.36-.49,4.33,1.28,7.8,4.86,12.98,4.57-2.42-2.29-4.83-4.58-7.65-7.24,5.31.68,8.96,4.72,14.43,4.99-1.9-3.39-5.02-4.45-7.66-6.55,3.79-1.66,8.52,2.39,11.62,4.16-.37-1.09-.58-1.72-.81-2.39.52-.11.98-.21,1.44-.3.08-.23.15-.46.23-.68-4.07-2.05-8.17-3.97-12.31-5.88l.31-.74c6.58,1.78,12.86,3.33,19.43,4.5-4.51-3.62-10.2-4.79-15.06-7.74,6.28-.31,11.7,2.93,18.1,4.4-3.12-4.7-7.94-5.03-13.04-6.26l.26-1.14c5.89.77,11.54,2.69,17.38,4.32-2.12-3.83-5.37-6.69-8.22-9.87l.41-.69c3.22,1.52,6.43,3.04,9.97,4.71-2.52-4.28-6.15-6.56-10.15-8.56l7.05.48c.08-.2.15-.41.23-.61-1.59-1.31-3.18-2.62-4.78-3.94,3-.47,4.22,1.6,6.31,3.21,2.06,1.59,4.4,2.42,6.97,2.82-1.59-5.65-6.26-8.07-10.61-11.5,4.21.21,7.26,1.92,10.51,3.39-2.73-3.63-5.79-4.85-9.77-6.6,5.64-.9,9.31,2.49,13.63,5.04-1.92-5.76-6.64-8.04-11.29-10.4.11-.14.22-.28.33-.41,2.26.12,4.52.24,6.78.36-7.87-9.05-21.35-4.09-31.68-4.09,3.5-1.86,6.45-3.43,9.4-5-5.43.11-10.42,2.37-15.41,4.26-5.25,1.99-9.88,3.26-14.81,5.96.07.21.15.42.22.63,3.27-1.06,6.54-2.12,9.81-3.18.08.18.15.37.23.55-3.79,2.17-8.62,2.65-11.61,7.13,2.89-.47,5.36-.86,7.84-1.26.06.23.12.45.17.68-4.23,1.23-7,1.97-10.37,4.77.31.56.55,1,.96,1.76h-4.74c1.91,2.26,5.06,2.74,5.47,6-1.57-.94-3.14-1.88-4.71-2.82,0,.07-.02.13-.02.2-1.51-.55-3.02-1.09-4.53-1.64-.08.15-.16.3-.24.45l6.56,5.33-.22.41c-1.42-.25-2.85-.49-4.44-.77.2.76.33,1.24.45,1.72-.15.17-.3.34-.45.51-2.05-1.39-4.09-2.77-6.14-4.16l-.43.38c1.39,2.01,2.77,4.02,4.16,6.03-.21.2-.41.39-.62.59-1.37-1.02-2.73-2.05-4.16-3.12-1.75,1.76.75,2.67.72,4.24ZM365.41,218.23c.16-.05.33-.1.49-.15-.16-1.14-1.17-3.83-.11-4.7,2.05-1.68,3.66,1.41,5.08,1.96,4.72,1.83-.93-3.28-1.63-4.5-2.63-4.59,2.25-2.89,4.58-4.38,3.52-2.26,1.87-6.65,1.37-9.83l.69-.28c1.03,1.06,2.06,2.11,3.08,3.16.58-.92,1.22-1.94,1.64-2.61-1.97-3.57-1.83-5.96,1.12-9,.92-.95,2.15-1.18,3.09-2.18.79-.84,1.82-3.28,2.52-4.19,5.85-7.65,12.77-14.76,17.47-23.2-.27-.19-.53-.38-.8-.58-8.52,8.71-15.85,18.03-23.42,27.5-3.79,4.74-8.13,8.95-12.41,13.24-4.64,4.65-8.38,5-14.84,5.74-1.01,11.2-4.03,20.54-9.45,30.41-2.51,4.58-5.51,8.4-8.65,12.51-1.37,1.79-2.84,3.52-4.19,5.32-1.34,1.79-1.91,4.35-3.17,5.99-.73.95-2.04,1.82-2.92,2.89-1.63,1.99-3.02,4.39-4.52,6.5-3.43,4.81-6.8,9.66-10.29,14.43-2.68,3.65-8.3,8.68-9.5,13.05-1.05,3.83,3.73,8.41,5.81,11.51l.63-.26c.12-.84-.6-2.57-.2-3.27.53-.93,1.84-.31,2.17-1.07.76-1.75-1.55-3.19-1.91-5.31,2.54.18,3.47,1.53,5.32,3.29.81-1.09,1.48-1.99,2.14-2.87-4.01-4.14-4.02-4.17-1.75-5.73,1.2,1.19,2.4,2.37,3.8,3.76.71-1.47,1.17-2.41,1.72-3.53-3.16-.59-2.54-3.32-3.76-5.42,1.08.72,4.83,4.12,6.06,2.47,1-1.33-.69-1.76-1.09-2.89-1.88-5.34,2.76-8.6,5.93-12.54,1.81,1.53.64,5.6-2.4,8.47.4.53.8,1.05,1.07,1.41,5.1-7.55,9.98-14.76,14.96-22.14-3.39,1.75-4.3.4-2.35-3,1.96-3.43,5.01-6.46,7.4-9.63,2.44-3.23,4.7-6.57,7.21-9.74,2.22-2.8,4.6-5.39,4.64-9.2,1.6-.12,2.96-.22,4.39-.32-.55-2.32-3.18-2.09-2.85-4.68.31-2.4,3.53-3.87,5.61-3.42-.34-1.78-.54-2.39-.04-4.2.97.05,1.72.46,2.24,1.22ZM151.54,66.84c-.14-.19-.27-.39-.41-.58-4.03,3.1-7.19,6.98-10.28,11.03-3.56,4.66-2.55,7.32-2.31,12.78.18.04.36.07.55.11.43-.88.87-1.77,1.38-2.8.19,1.68.36,3.09.52,4.49.24.09.47.18.71.27,1.09-1.51,2.17-3.02,3.26-4.53.17.05.34.1.51.14-.14,1.25-.27,2.49-.41,3.74.13.04.26.08.4.12.84-1.65,1.68-3.3,2.52-4.95.25.11.5.22.76.33-.24,1.34-.48,2.69-.72,4.03.1.04.19.08.29.11,1.7-2.75,3.39-5.49,5.09-8.24.18.11.37.22.55.33-.37,1.28-.74,2.57-1.12,3.85,3.46-3.17,6.3-8.85,10.86-10.43-1.7,3.33-5.26,5.61-5.36,9.59,8.5-6.98,17.34-12.54,26.92-16.99-1.46.02-5.76,2.37-6.96,1.44-.08-.3-.16-.59-.25-.89,6.15-2.73,12.31-5.47,18.46-8.2l-.13-.47c-4.4,1.07-8.8,2.15-13.2,3.22,7.86-5.29,17.11-6.2,25.75-9.15-5.99-.95-11.66,1.1-17.49,1.86,2.91-2.61,7.55-1.62,10.21-4.29-2.74-1.25-7.02.41-9.93.93-4.2.76-8.18,1.93-12.26,3.15-.09-.17-.17-.34-.26-.51,2.7-1.51,5.41-3.02,8.58-4.78-8.04-.91-17.48,6.56-24.14,10.22.24-.3.57-.74,1.1-1.41-6.84,1.18-11.21,5.56-15.21,10.5-.19-.22-.39-.45-.58-.67.88-1.12,1.76-2.24,2.64-3.37ZM232.25,406.15c2-2.8,3.93-5.64,5.89-8.47.84-1.21,1.69-3.04,2.88-3.85.24-.16,1.71-.32,1.71-.33,1.19-1.49.59-2.2,1.28-4.51.68-2.3,2.79-4.25,4.2-6.13q2.35,1.5,3.49.09c-.79-.39-1.53-.75-2.6-1.27,1.03-1.35,2.03-2.65,2.85-3.72,1.24.38,2.05.62,3.19.97-.76-3.3-1.25-2.86.92-5.72,2.22-2.92,2.56-4.07,2.56-7.94,4.73,1.8,6.33,2.21,6.46-2.98.02-.63-.47-1.02-.39-1.84.03-.28.89-1.17,1.13-1.49,1.35-1.81.57-2.39,3.54-1.26-.37-4.18,1.53-6.79,3.19-10.36.92.74,1.57,1.27,2.27,1.84.47-.93,1.78-2.78,1.46-3.93-.4-1.46-2.16-.73-2.71-1.97-.83-1.88.41-2.4.79-4.05.51-2.24-.19-4.26-.3-6.48-6.13,4.56-10.65,13.56-15.17,19.67-5.14,6.94-10.24,13.92-15.37,20.87-5.07,6.87-10.38,13.53-15.68,20.23-1.82,2.3-5.65,5.53-5.58,8.68.06,2.87,3.21,6.36,5.56,7.63,2.16-1.68-.06-2.82-.31-4.08,2.89-2.7,3.82-2.66,4.72.4ZM198.54,433.88c-9.3,12.34-18.44,24.81-27.9,37.03-4.65,6.01-9.5,11.89-14.51,17.6-1.36,1.56-4.76,4.11-4.38,6.41.31,1.87,4.22,5.1,5.48,6.57.63-2.44-2.51-2.67-.86-5.81,1.69-3.22,5.27-6.03,7.35-9.15.88.53,1.69,1.02,2.52,1.52.56-.85,1.12-1.71,1.68-2.56-.22-.01-.44-.03-.66-.04-.28-3.01,1.92-4.92,3.98-7.05,2.68-2.76,3.6-2.64,5.68.55.29-.27.57-.55.86-.82-3.17-3.97-1.38-6.06,1.53-9.58.8-.96,2.34-3.75,3.65-4,1.57-.31,2.38,1.1,3.89,1.02-.41-4.24-1.16-4.79,2.23-5.66,2.63-.68,2.73.41,4.42-2.5-4.36-5.47,7.35-15.94,10.52-20.24-1.89-1.13-3.57-2.13-5.5-3.28ZM110.18,117.52c8.9-2.23,17.97-5.49,27.13-6.28,4.34-.38,8.89-.35,13.18.49,3.76.74,6.31,2.9,9.73,4.33-1.27-2.81-3.86-5.57-5.96-7.77-1.01-1.05-2.82-3.09-4.27-3.55-1.67-.53-1.63.09-3.2.62-1.22.42-7.11,2.68-7.81-.41-.28-1.25,5.52-4.87,6.45-5.66-2.91-1.39-6.11-3.55-9.38-3.89-4.02-.42-6.23,2.85-9.05,5.37-6,5.35-11.81,10.48-16.84,16.76ZM114.21,556.14c.13.07.26.14.38.21,3.01-4.57,6.35-9.06,9.07-13.81,2.39-4.18,2.46-7.62,6.16-10.76,3.43-2.91,5.06-7.31,7.73-10.86,2.92-3.88,8.71-8.13,6.28-13.37-3.76,2.8-6.7,7.49-9.72,11.07-2.98,3.54-6.3,7.08-8.65,11.1-4.74,8.13-7.55,17.78-11.26,26.42ZM205.24,396.51c-.04-.23-.08-.46-.12-.69,1.91-1.42,5.85-2.58,5.66-5.35-1.26-.93-2.27-1.69-3.28-2.43-2.3,5.57-4.01,9.02-3.12,15.07.79,5.39,1.76,10.6,3.08,15.89,1.6-3.08,3.89-2.41,6.03-2.02-1.82-3.81-2.8-9.31-7.86-8.79-.04-.15-.09-.31-.13-.46.97-.38,1.94-.75,2.91-1.13-.12-.08-.25-.15-.37-.23.67-.96,1.34-1.91,2.3-3.28.61,1.31,1.82,5.64,3.23,6.36,1.46.74,2.46-.89,3.69-2.03-1.39-2.12-2.37-4.17-4.54-5.36-1.48-.82-3.29.18-3.5-2.25.81-.67,1.46-1.21,2.59-2.15-2.57-.44-4.58-.79-6.59-1.13ZM250.8,420.55c0,13.47,3.43,27.72,5.88,40.93,2.32,12.46,5.37,26.51,11.58,37.66-8.22-25.69-12.72-52.16-17.47-78.59ZM219.13,379.26c-.46,3-4.31,19.85,3.44,13.5,1.55-1.27,3.78-6.41,3.35-8.54-.59-2.92-4.45-3.89-6.78-4.96ZM214.49,370.4c.02-.19.04-.39.06-.58,5.34-.59,2.13-8.48-.75-1.35-2.48,6.15-4.23,12.68-6.13,19.02,4.16,0,6.45-1.29,3.64-5.5q2.67-1.73,3.7-5.38c-.58-.22-1.17-.44-2.27-.84,2.59-1.87,5.33-3.14,1.75-5.37ZM197,95.18c-.25.02-.5.05-.75.07-1.03,4.38-2.59,8.74-7.24,10.27-5.45,1.79-11.26-.64-14.65-5.01-2.92,6.66,9.59,8.7,13.58,7.61,5.52-1.51,10.54-7.09,9.06-12.94ZM155.62,506.55c-1.18-2.7-8.31-11.89-11.73-9.96-4.31,2.43,9.19,9.96,11.73,9.96ZM152.81,119.9c-3.84-3.07-13.98-2.94-28.71.32,9.41-1.67,18.87,1.17,28.71-.32ZM308.84,328.1c-.56-2.11-5.85-5.02-7.37-6.85-1.35-1.62-2.65-5.68-5.6-3.51-2.27,1.67,2.59,5.39,4.11,6.78,2.53,2.31,5.44,3.47,8.87,3.58ZM288.93,306.72c.2.04.39.07.59.11,3.14-2.31,3.64-2.38,1.59-5.79-.9-1.5-2.47-5.29-4.6-5.36-6.41-.22-1.7,10.16-.42,12.68-.28-3.14-2.67-6.26.12-9.61.42,1.19.77,2.18,1.09,3.1,1.01-.3,1.85-.56,2.9-.87-.48,2.17-.87,3.96-1.27,5.75ZM299.4,228.76c-.51-8.68-3.41-16.15-9.2-22.47-.35,3.19,2.53,7.78,3.73,10.62,1.7,4.01,3.6,7.92,5.47,11.85ZM281.68,328.11c-1.02-2.19-2.44-4.14-3.05-6.5-.39-1.5.13-3.3-1.76-3.89-4.24-1.32-2.66,6.83-1.42,8.61,1.11-.63,1.85-1.06,2.59-1.48.19.17.37.34.56.51-2.35,3.74-.22,3.71,3.08,2.75ZM276.07,202.56c-.19.11-.37.23-.56.34,2.8,5.29,5.6,10.57,8.47,15.99,4.59-4.51-4.54-13.79-7.92-16.33ZM273.52,236.89c1.33,6.51,4.79,11.85,8.75,16.91-1.11-6.61-3.74-12.4-8.75-16.91ZM195.3,90.9c.1-4.79-6.77-6.38-10.39-6.41-4.32-.03-7.94,2.03-10.53,5.43,3.92.08,7.27-3.2,11.54-3.19,3.72,0,7.01,1.2,9.39,4.17ZM114.09,208.17c-3.09,2.02-5.9,16.01-3.95,19.08,1.94-6.41,3.89-12.54,3.95-19.08ZM212.03,419.21c-1.62.88-2.96,1.61-4.53,2.47,1.15,2.07,2.45,4.42,3.82,6.9,1.34-1.32,2.64-2.64,4.69-1.07.1-.16.2-.33.3-.49-1.49-2.72-2.98-5.43-4.28-7.81ZM201.49,416.45c-1.44,3.28,1.48,7.23,2.07,10.47-.25.1-.49.21-.74.31,2.53,2.93,5.06,5.86,7.59,8.79.13-.08.25-.16.38-.24-3.11-6.46-6.22-12.92-9.31-19.34ZM255.09,245.52c-.03,6.72,2.9,12.19,7.26,17.06-1.42-6.11-3.42-11.98-7.26-17.06ZM212.15,240.98c-.24.12-.48.24-.71.36.02,5.92,4.98,14.25,9.19,14.69-2.92-5.18-5.7-10.12-8.48-15.05ZM223.85,417.94c-.26.05-.52.11-.77.16,0,6.71,6.03,8.35,11.84,9.72-3.97-3.55-7.52-6.72-11.06-9.88ZM245.65,250.52c-2.13-5.82-5.44-10.81-10.54-14.88,1.87,6.36,5.55,11.08,10.54,14.88ZM289.03,340.88c-2.63-2.38-3.06-4.64-4.85-7.38-.79-1.21-2.8-3.57-4.26-1.22-2.29,3.69,6.03,8.96,9.11,8.6ZM286.65,315.99c-1.13-1.99-3.62-7.61-6.8-5.47-3.4,2.28.51,4.51.83,6.59.56-1.09.94-1.85,1.43-2.81.12.85.21,1.43.29,2,1.48-.11,2.83-.2,4.26-.31ZM394.25,180.57c-4.17,1.55-9.68,5.52-8.86,10.54,4.13-1.05,6.6-7.06,8.86-10.54ZM290.64,325.47c-1.15,1.45-2.02,2.56-2.88,3.65,1.19,1.91,2.39,3.84,3.59,5.75.84-.58,1.92-1.33,3.12-2.16-1.19-2.25-2.45-4.63-3.83-7.24ZM249.33,152.51c-3.29-4.53-11.26-8.2-14.47-7,3.55,3.36,10.01,5.01,14.47,7ZM287.55,318.1c-5.59,1.19-3,3.91-.85,7.88.92-1.05,1.85-2.1,2.98-3.38-.5-1.07-1.29-2.73-2.13-4.5ZM306.32,228.94c1.73-3.73-1.57-14.68-4.71-15.92,1.56,5.26,3.06,10.35,4.71,15.92ZM220.67,418.89c.54-1.34,1.01-2.51,1.5-3.75-1.08-1.59-2.21-3.26-3.35-4.94-3.64,2.25-2.12,4.54,1.84,8.68ZM273.48,157.32c3.76,3.31,7.5,6.59,11.24,9.88-1.48-4.98-8.85-11.15-11.24-9.88ZM219.8,435.64c.02-.26.04-.53.07-.79-1.63-1.91-3.2-3.78-5.04-5.47-1.86,4.65.15,7.3,4.97,6.27ZM215.78,57.68c-2.86-1.12-13.56,1.56-15.78,4.34,5.72-.99,10.81-2.43,15.78-4.34ZM302.61,342.14c-.55-.64-8.66-9.72-8.87-4.65-.1,2.35,7.14,4.67,8.87,4.65ZM289.38,250.41c.26-.09.53-.17.79-.26.06-5.5-3.07-9.65-5.83-13.95-.21.09-.42.18-.64.27,1.89,4.65,3.78,9.29,5.68,13.94ZM264.48,173.95c-1.25-3.76-6.14-7.89-9.07-7.63,2.73,2.95,4.38,6.8,9.07,7.63ZM222.73,286.51c-1.2-4.61-2.87-8.93-6.2-12.37,1.26,4.56,2.5,9.12,6.2,12.37ZM224.26,80.29c-.02-.18-.04-.35-.07-.53-5.6-.06-10.25,2.89-15.27,4.67.12.36.23.72.35,1.08,5-1.74,9.99-3.48,14.99-5.22ZM225.95,279.33c-.28.15-.57.31-.85.46.61,4.96,3.9,8.47,6.7,12.25.23-.12.46-.25.69-.37-2.18-4.11-4.36-8.22-6.54-12.33ZM268.09,248.08c-.98-4.59-3.07-8.64-6.08-12.21.65,4.75,3.07,8.62,6.08,12.21ZM225.91,255.54c-1.87-4.05-4.09-7.85-7.41-10.92,1.22,4.49,4,7.92,7.41,10.92ZM288.56,189.79l.58-.33c-1.81-2.88-3.62-5.76-5.59-8.91-1.56,2.82.64,6.4,5.01,9.24ZM303.18,259.11c.24-5.31-2.19-11.87-5.84-15.89,1.5,5.54,4.31,10.41,5.84,15.89ZM287.08,277.81c-.22.05-.45.11-.67.16l3.11,13.29c.2-.05.4-.09.6-.14.67-4.84-1.59-8.98-3.04-13.31ZM291.23,311.94c1.66-.88,3.19-1.69,4.97-2.63-.91-1.27-1.71-2.39-2.78-3.88-1.09,2.47-3.65,3.93-2.18,6.51ZM282.02,191.56l.8-.5c-1.9-4.04-3.78-8.09-7.24-11.12-.18.11-.35.23-.53.34,2.33,3.76,4.65,7.53,6.98,11.29ZM133.19,534.09c-.37-.26-.74-.51-1.12-.77-.79.75-5.5,4.34-2.52,5.43,2.33.86,3.07-3.27,3.64-4.67ZM209.93,90.06c3.21,0,7.95-2.53,9.09-4.62-3.41.45-6.51,1.53-9.09,4.62ZM289.78,186.37c2.43,6.42,2.99,7.23,4.89,7.15-.26-3.3-2.99-7.28-4.89-7.15ZM238.05,151.49c-1.24-2.54-6.34-4.61-8.1-3.84,2.78,2.35,4.56,3,8.1,3.84ZM207.15,64.86c-2.99-1.26-10.49,1.51-10.23,3.12,3.4-1.04,6.81-2.08,10.23-3.12ZM183,346.88c-.22.29-.43.58-.65.87,3.07,2.29,6.14,4.59,9.21,6.88l.59-.79c-3.05-2.32-6.1-4.64-9.15-6.96ZM262.13,165.02c-.2.18-.4.37-.6.55.96,2.43,4.92,6.82,6.99,6.93-2.36-2.77-4.37-5.13-6.39-7.49ZM269.56,224.6c.29-.16.57-.31.86-.47-2.16-2.47-1.91-6.47-5.34-8.13-.17.11-.34.21-.51.32,1.67,2.76,3.33,5.52,5,8.28ZM271.49,296.12c-1.06-3.39-2.27-6.46-3.79-9.66-.17.08-.33.16-.5.24.82,3.4,1.74,6.77,4.29,9.43ZM201.21,335.08c-2.66-2.94-5.32-5.88-7.97-8.82-.19.19-.38.38-.57.56,1.92,3.67,5.77,5.43,8.54,8.25ZM183.48,96.34c1.83-2.21,2.29-2.13.14-4.4-2.26,2.16-1.9,2.03-.14,4.4ZM257.94,135.3c.15-.14.31-.28.46-.42-.49-2.54-3.32-5.15-6.26-5.1,2.18,2.07,3.99,3.8,5.8,5.52ZM253.23,289.73l-1.15.4c1.29,2.95,2.59,5.91,3.88,8.86l.86-.36c-1.19-2.97-2.39-5.93-3.58-8.9ZM299.01,313.92c-.72-3.62-6.24-2.37-5.75,1.21q1.53-1.39,5.75-1.21ZM254.72,275.23c.34-.16.67-.32,1.01-.49-1.42-2.92-2.84-5.85-4.26-8.77-.3.15-.6.29-.9.44,1.39,2.94,2.77,5.88,4.16,8.82ZM251.4,146.41l-.46.64c2.34,1.46,4.68,2.92,7.02,4.37l.36-.57c-1.68-2.44-4.35-3.36-6.92-4.45ZM207.49,78.9c.06.3.11.61.17.91,3.35-1.03,6.69-2.05,10.04-3.08l-.26-.9c-3.32,1.02-6.63,2.05-9.95,3.07ZM205.5,321.49c-.26.23-.52.46-.78.69,2.43,2.81,4.85,5.62,7.28,8.43.18-.15.36-.31.53-.46-2.34-2.89-4.69-5.78-7.03-8.67ZM235.37,279.13c-.27.15-.53.29-.8.44,1.35,2.62,2.71,5.25,4.06,7.87.32-.17.63-.33.95-.5-1.4-2.6-2.8-5.21-4.21-7.81ZM245.81,90.7c-2.34-1.98-6.62-1.64-7.37.5,2.39-.16,4.66-.31,7.37-.5ZM257.6,140.19c-1.41-2.05-2.83-4.08-5.48-4.53,1.35,2.1,2.76,4.13,5.48,4.53ZM173.57,94.67c-3.23-.04-3.42,2.36-3.07,4.82.24-.02.48-.04.71-.07.74-1.49,1.48-2.98,2.36-4.75ZM225.87,307.33c-.3.22-.59.43-.89.65,1.58,2.4,3.15,4.8,4.73,7.21l.74-.47c-1.53-2.46-3.05-4.93-4.58-7.39ZM222.18,317c.2-.16.41-.31.61-.47-1.78-2.39-3.55-4.78-5.33-7.17l-.79.6c1.84,2.35,3.67,4.69,5.51,7.04ZM260.7,130.44c.17-.2.33-.39.5-.59-1.95-3.34-3.67-4.71-5.93-4.51,1.9,1.78,3.67,3.44,5.43,5.1ZM241.99,269.39c.16-.08.33-.17.49-.25-1.02-2.57-1.51-5.41-3.63-7.43-.2.1-.41.21-.61.31,1.25,2.46,2.5,4.91,3.75,7.37ZM272.3,193.03c.26-.15.52-.29.79-.44l-4.3-7.54c-.19.11-.38.21-.56.32,1.36,2.55,2.71,5.11,4.07,7.66ZM195.35,348.94c-.16.21-.32.42-.48.63l7.45,5.18c.12-.18.25-.35.37-.53-2.45-1.76-4.89-3.51-7.34-5.27ZM185,71.75c.15.28.3.56.46.84,2.07-.95,4.14-1.89,6.22-2.84-.13-.28-.26-.56-.39-.84-2.09.95-4.19,1.89-6.28,2.84ZM259.11,491.65c-.18-.01-.36-.03-.54-.04-.54,3.91-1.08,7.81-1.62,11.72.15.02.29.04.43.05.57-3.91,1.15-7.82,1.72-11.74ZM237.91,343.72c.2-.16.39-.31.59-.47-1.41-2.02-2.82-4.05-4.23-6.07-.25.18-.5.36-.75.55l4.4,6ZM211.57,92.18c.15.24.31.49.46.73,2.23-1.09,4.47-2.17,6.7-3.26-.13-.25-.25-.5-.38-.75-2.26,1.09-4.52,2.19-6.78,3.28ZM311.28,218.84c.24-.08.48-.16.72-.25-.78-2.24-1.57-4.49-2.35-6.73-.24.08-.48.16-.72.24.78,2.25,1.57,4.49,2.35,6.74ZM266.64,190.1c-.32.13-.63.26-.95.4.75,1.39,1.5,2.79,2.26,4.18.32-.17.64-.35.96-.52l-2.26-4.06ZM181.97,358.64c.16-.18.33-.35.49-.53-2.38-1.82-4.76-3.64-7.14-5.47-.11.14-.21.27-.32.41,2.32,1.86,4.64,3.72,6.97,5.59ZM255.51,90.88c-.12.23-.24.46-.36.69,1.89,1.07,3.79,2.13,5.68,3.2.12-.22.25-.44.37-.66-1.9-1.08-3.79-2.15-5.69-3.23ZM196.6,453.52c.17-.13.33-.26.5-.39v-3.03c-.98.82-1.58,1.32-2.17,1.82l1.68,1.61ZM273.43,144.42l-.51.58c.88,1.21,1.69,2.5,3.35,2.69.13-.16.26-.32.39-.48-1.08-.93-2.15-1.86-3.23-2.79ZM199.41,344.09c.14-.18.28-.37.43-.55-1.86-1.34-3.73-2.68-5.59-4.03-.12.17-.25.34-.37.52,1.85,1.35,3.69,2.71,5.54,4.06Z"/>
    <path class="cls-3" d="M182.96,123.98c.03-1.57-2.47-2.48-.72-4.24,1.43,1.07,2.79,2.1,4.16,3.12.21-.2.41-.39.62-.59-1.39-2.01-2.77-4.02-4.16-6.03l.43-.38c2.05,1.39,4.09,2.77,6.14,4.16.15-.17.3-.34.45-.51-.13-.48-.25-.96-.45-1.72,1.59.27,3.01.52,4.44.77l.22-.41-6.56-5.33c.08-.15.16-.3.24-.45,1.51.55,3.02,1.09,4.53,1.64,0-.07.02-.13.02-.2,1.57.94,3.14,1.88,4.71,2.82-.41-3.27-3.56-3.75-5.47-6h4.74c-.41-.76-.65-1.2-.96-1.76,3.37-2.8,6.14-3.53,10.37-4.77-.06-.23-.12-.45-.17-.68-2.47.4-4.94.8-7.84,1.26,2.98-4.48,7.82-4.96,11.61-7.13-.08-.18-.15-.37-.23-.55-3.27,1.06-6.54,2.12-9.81,3.18-.07-.21-.15-.42-.22-.63,4.93-2.7,9.56-3.97,14.81-5.96,4.99-1.89,9.98-4.16,15.41-4.26-2.95,1.57-5.9,3.14-9.4,5,10.33,0,23.82-4.96,31.68,4.09-2.26-.12-4.52-.24-6.78-.36-.11.14-.22.28-.33.41,4.65,2.35,9.37,4.64,11.29,10.4-4.33-2.54-8-5.94-13.63-5.04,3.98,1.75,7.04,2.97,9.77,6.6-3.25-1.48-6.3-3.18-10.51-3.39,4.35,3.43,9.02,5.85,10.61,11.5-2.56-.41-4.91-1.23-6.97-2.82-2.08-1.61-3.3-3.68-6.31-3.21,1.6,1.32,3.19,2.63,4.78,3.94-.08.2-.15.41-.23.61l-7.05-.48c4.01,2,7.64,4.28,10.15,8.56-3.54-1.67-6.76-3.19-9.97-4.71l-.41.69c2.85,3.18,6.1,6.04,8.22,9.87-5.83-1.63-11.48-3.55-17.38-4.32l-.26,1.14c5.1,1.23,9.92,1.56,13.04,6.26-6.4-1.47-11.82-4.71-18.1-4.4,4.86,2.94,10.55,4.11,15.06,7.74-6.57-1.16-12.85-2.71-19.43-4.5l-.31.74c4.14,1.91,8.24,3.83,12.31,5.88-.08.23-.15.46-.23.68-.46.1-.91.19-1.44.3.23.67.44,1.3.81,2.39-3.1-1.78-7.83-5.83-11.62-4.16,2.64,2.09,5.76,3.16,7.66,6.55-5.47-.27-9.12-4.31-14.43-4.99,2.81,2.66,5.23,4.95,7.65,7.24-5.18.29-8.65-3.29-12.98-4.57-.12.16-.24.33-.36.49,2.2,2.1,4.39,4.08,6.24,6.48-.18.31-.35.61-.53.92,2.94.6,4.97,1.12,7.28.25,2-.75,3.87-2.5,6.69-2.53,3.94-.04,15.66,6.61,16.43,10.69-2.07-1.03-4.14-2.05-6.21-3.08-.18.21-.36.41-.55.62,3.69,3.26,5.79,7.59,9.52,10.53,3.91,3.08,8.3,4.68,12.24,7.75-1.09-1.3-1.96-2.35-2.84-3.39.17-.03.33-.06.5-.08-.25-1.53-.49-3.07-.72-4.51,2.62.94,9.53,11.01,11.28,17.49-1.79-1.36-3.58-2.71-5.38-4.07l-.48.34c1.6,2.8,3.21,5.59,4.81,8.39-.12.1-.24.19-.36.29-2.36-1.21-4.71-2.43-7.45-3.84,3.81,7.53,7.39,14.61,11.2,22.13-3.74-.07-5.87-3.66-8.87-5.71-3.9-2.68-8.93-7.75-13.73-8.39,3.15,4.94,12.16,12.89,11.23,19.02-3.79-.94-7.51-6.52-10.16-9.37-2.47-2.65-4.97-7.16-8.31-8.58-.15.16-.29.33-.44.49,2.44,3.42,22.24,27.92,17.35,30.56-7.92-8.32-13.22-18.56-21.11-26.77,3,9.38,9.87,16.34,15.03,24.34-3.73,1.54-6.58-3.57-8.87-6.07-3.5-3.82-6.71-7.88-10.43-11.51,4.75,8.65,9.15,16.24,10.34,26.24-4.9-4.82-9.81-9.64-14.71-14.45-.07.07-.14.14-.2.21,2.08,5.11,4.16,10.23,6.23,15.34-.29.17-.58.34-.87.5-5.4-7.04-9.07-16-15.2-22.35,2.59,7.52,6.54,14.54,6.73,23.26-1.73-2.29-3.24-4.29-4.74-6.29-.1.04-.2.09-.3.13.9,3.2,1.79,6.4,2.69,9.6-.23.12-.45.23-.68.35-2.77-4.02-4.12-9.02-5.95-13.54-1.7-4.2-3.21-10.32-6.56-13.5.74,7.65,5.1,14.42,5.39,22.22-4.53.71-10.49-16.16-13.32-19.18,2.07,9.17,5.67,17.85,9.69,26.32,1.9,4.01,3.98,7.92,5.62,12.05,1.1,2.75,4.9,9.65,4.01,12.4-5.02-6.23-10.12-12.38-13.39-19.8-.15.07-.31.14-.46.21,1.62,5.06,3.51,9.94,5.53,14.85.87,2.11,5.94,10.13,2.8,11.47-4.24-5.57-8.49-11.17-12.74-16.76-.28.16-.56.32-.84.48,2.95,6.87,5.73,13.58,9.48,20.08,3.94,6.82,8.26,13.31,11.31,20.58-.22.13-.43.26-.65.39-2.44-3.49-4.95-6.94-7.31-10.49-1.52-2.29-2.42-5.38-4.78-6.81-.61,1.81-.06,2.38.03,4.21-4.18-2.25-6.67-6.03-9.13-9.89.52,8.94,6.94,15.41,9.55,23.52-7.32-6.56-11.73-15.3-17.17-23.26-.19.07-.37.15-.56.22,1.13,3.83,2.3,7.6,3.97,11.24,1.47,3.21,3.6,5.36,4.41,8.79-6.82-3.03-10.48-10.91-15.98-15.72,5.8,10.15,14.92,18.36,19.33,29.28-4.65-1.71-6.73-6.66-10.75-9.21-.17.13-.34.26-.51.39,3.08,5.37,6.15,10.75,9.23,16.12-.14.09-.27.17-.41.26-6.14-5.65-12.28-11.31-18.42-16.96-.1.08-.2.17-.3.25,3.75,6.15,7.51,12.3,11.26,18.45-.14.13-.28.25-.42.38-7.91-3.82-12.8-10.99-18.48-17.67,3.12,9.46,9.73,16.2,15.12,23.92-4.5-2.97-9.27-5.57-13.44-9.03-4.19-3.48-7.65-7.73-11.43-11.64.93,5.85,4.98,9.94,9.23,13.69,5.27,4.67,10.24,9.59,15.3,14.49-.2.24-.41.48-.61.72-5.24-3.69-10.48-7.37-15.73-11.06-.18.17-.35.35-.53.52,3.01,3.8,6.02,7.61,9.03,11.41-.12.1-.24.19-.35.29-3.08-2.15-6.32-4.19-9.29-6.5-2.39-1.86-4.26-4.47-7.01-5.86l-.67.75c5.06,5.58,10.12,11.16,15.18,16.74-.16.17-.32.34-.47.52-4.65-4.08-9.3-8.15-13.95-12.23-.13.11-.25.23-.38.34,1.87,2.7,3.24,5.7,5.16,8.37,1.28,1.77,5.25,4.47,5.41,6.62-8.84-6.78-16.33-15.21-22.38-24.55-6.52-10.05-10.1-21.44-14.53-32.48-1.35,4.53,2.09,10.14,3.69,14.2-.23.14-.46.28-.68.42-4.14-5.13-5.78-13.17-7.87-19.38-2.25-6.66-4.83-13.29-6.05-20.21.71.52,1.09.8,1.47,1.07.16-.04.33-.08.49-.12-1.93-7.92-4.76-14.14-3.87-22.51.9-8.47,2.28-16.91,3.5-25.34-.28-.09-.55-.17-.83-.26-1.2,3.11-2.4,6.23-3.59,9.34-.21-8.03.55-16,2.26-23.99-.96,1.61-1.91,3.22-2.87,4.83-.21-.06-.42-.13-.63-.19.73-3.6,1.46-7.2,2.24-11.01-3.02,2.13-4.31,5.31-6.23,8.28.61-6.29,3.27-12.27,5.78-18.05,1.09-2.51,7.64-12.77,6.27-15.07-1.58,1.88-3.16,3.76-4.73,5.65-.21-.17-.42-.34-.63-.51,1.31-3.37,2.41-6.88,4.52-9.86,2.44-3.43,6.41-5.93,8.32-9.71,2.32-4.6-.71-12.85,3.97-16.37v13.53l.26.16,3.46-8.29c.23-.05.46-.09.7-.14,2.28,4.37,1.7,9.39,2.14,14.28,3.51-3.8,3.87-7.95,3.45-12.3.19-.01.38-.03.58-.04.81,4.28,1.62,8.56,2.44,12.85.22,0,.43,0,.65,0,.36-1.68.72-3.36,1.11-5.13.2.39.37.73.68,1.35,2.81-3.82.8-9.18-.07-13.3.2-.07.4-.13.6-.2,1.44,4.81,2.04,8.82,6.64,11.5.23-.12.45-.23.68-.35-1.84-6.94-3.68-13.89-5.52-20.83.26-.12.52-.24.78-.35,1.79,3.09,2.81,7.05,5.91,8.88.26-5.04-5.06-8.88-4.12-14,3.01.68,4.4,4.64,6.99,6.27.26-3.7-2.19-6.8-2.35-10.6,2.15.02,2.49,1.97,3.74,3.22,1.53,1.52,3.56,2.64,5.33,3.86-1.1-3.58-4.57-5.73-3.45-9.48,2.34,2.91,4.62,5.76,6.9,8.61.27-.18.54-.36.8-.54l-4.97-8.99c.27-.21.55-.42.82-.63,1.41,1.5,8.37,11.38,10.27,8.69ZM132.72,225.45c-2.62,5.98-1.85,12.92-3.96,19.06-.28-.05-.55-.09-.83-.14-.28-5.16-.57-10.33-.84-15.18-1.39,5.6-1.78,9.72-.91,15.48.87,5.82,2.89,8.91,5.96,13.81l.66-.18c-.55-11.07-.55-21.78-.07-32.85ZM224.16,157.9c4.18,5.35,9.71,8.63,15.16,12.67,2.66,1.97,5.42,3.84,7.85,6.11,2.32,2.18,3.39,4.05,6.5,4.96-.48-6.34-6.62-9.4-11.16-13.12-5.69-4.67-11.78-7.45-18.35-10.63ZM139.26,243.68c-1.66,9.34.42,17.85,5.33,25.74-1.78-8.58-3.56-17.16-5.33-25.74ZM196.64,125.08c-.12.14-.24.28-.36.42.83,1.08,9.86,9.86,11.25,6.51.54-1.31-2.64-4.08-3.36-5.06-1.4-1.91-3.38-4.45-6.17-3.15,1.95,1.65,3.79,3.22,5.64,4.79-.15.22-.3.44-.45.66l-6.53-4.16ZM219.04,158.04c4.23,6.42,9.87,11.27,16.84,14.79-1.34-6.13-12.63-10.63-16.84-14.79ZM133.43,186.17c-.23-.09-.46-.18-.68-.27-1.8,4.12-10.82,15.54-6.54,19.28,2.48-6.53,4.85-12.77,7.23-19.02ZM238.33,174.25c4.16,4.05,7.24,8.73,12.81,11.01-1.61-3.97-9.61-11.02-12.81-11.01ZM156.88,324.21c-3.35-4.38-5.82-9.22-7.84-14.34-.61-1.55-1.5-3.25-3.91-3.77,3.73,6.45,5.18,13.9,11.75,18.11ZM234.26,175.46c.81,3.53,6.77,8.78,9.17,8.2-2.63-3.16-4.96-6.45-9.17-8.2ZM198.19,144.56c3.36,5.37,6.93,8.06,10.07,7.59-2.38-3.98-6.51-5.4-10.07-7.59ZM151.09,301.8c.19,4.29,3.57,11.13,5.51,11.4-.02-3.06-2.13-7.5-5.51-11.4ZM192.52,270.83l.47-.23c-2.67-4.9-5.34-9.79-8.24-15.11,1.12,6.24,3.85,11.1,7.77,15.33ZM222.89,171.61c-.51,2.7,5.19,9.22,8.8,9.85-2.86-3.2-5.72-6.4-8.8-9.85ZM136.46,213.11c.99-4.95,1.91-9.6,2.84-14.24-2.54,1.69-4.27,11.54-2.84,14.24ZM201.38,255.83c.21-.11.42-.22.63-.32-2.55-4.82-5.1-9.65-7.84-14.83.38,6.36,4.52,10.4,7.21,15.16ZM181.07,266.9c-1.86-4.7-3.72-9.41-5.58-14.11.29,5.29,1.71,10.14,5.58,14.11ZM135.2,270.6c-1.01,4.89.33,9.17,2.98,13.1.2-.05.4-.11.6-.16-1.19-4.31-2.39-8.63-3.58-12.94ZM140.49,165.43c-.16-.08-.32-.16-.48-.25-2.81,3.4-4.49,8.24-3.52,11.63,1.33-3.79,2.67-7.59,4-11.38ZM205.99,118.95c2.87,1.78,5.14,3.94,8.56,3.58,0-.26.02-.51.03-.77-2.62-1.55-5.05-3.57-8.58-2.81ZM151.26,198.64c.43-4.21.82-8.01,1.22-11.82-2.46,2.27-3.03,8.83-1.22,11.82ZM151.41,262.03c-1.07-5.18-2.15-10.36-3.22-15.54-.16.03-.33.07-.49.1.87,5.22.31,10.73,3.71,15.44ZM130.03,211.49c1.81-3.81,3.58-7.59,3.64-11.88-2.23,3.66-3.12,7.73-3.64,11.88ZM207.8,125.66c1.15-.6,1.91-1,3.03-1.58-3.19-.91-6.07-1.74-8.96-2.56-.12.3-.24.6-.36.91,2.25,1.16,4.5,2.32,6.28,3.24ZM218.32,118.33c.14-.1.28-.21.42-.31-1.44-2.19-6.35-3.92-8.98-2.68-.03.26-.07.52-.1.77,2.89.74,5.77,1.48,8.66,2.22ZM146.92,190.49c-.24-.06-.48-.11-.73-.17-2.07,3.62-2.45,7.63-2.58,11.7.21.05.43.1.64.15.89-3.89,1.78-7.79,2.66-11.68ZM164.56,140.23c-.71,3.23,1.77,7.94,4.64,8.68-1.55-2.89-3.09-5.79-4.64-8.68ZM212.37,176.6c.89,3.92,4.45,5.66,6.82,8.4-1.23-3.62-4.16-5.89-6.82-8.4ZM238.65,98.11c0-.26.02-.53.02-.79-1.67-1.41-7.57-1.48-9.66.17,3.44.22,6.54.42,9.64.63ZM158.72,194.94c.5-4.54,1-9.08,1.55-14.07-2.1,4.81-2.72,9.37-1.55,14.07ZM221.85,103.8c-2.62.49-5.36-2.21-7.87.29,2.64-.06,5.33,2.31,7.87-.29ZM181.72,145.01c.65,3.47,4.11,7.54,7.24,8.53-2.41-2.84-4.82-5.68-7.24-8.53ZM190.06,167.19c.2-.11.4-.22.61-.32.08-3.55-3.09-5.29-4.46-8.04-.23.13-.47.26-.7.39,1.52,2.66,3.03,5.31,4.55,7.97ZM168.47,135.27c-.23.07-.47.14-.7.22-.64,3.09.67,5.56,2.42,7.9.23-.07.46-.14.68-.21l-2.4-7.9ZM189.16,247.7c-.25,4.29,1.98,7.61,3.87,11.06.17-.07.34-.13.51-.2-1.46-3.62-2.92-7.24-4.38-10.86ZM171.82,281.71c1.53,3.18,3.15,6.21,4.94,9.25.25-.15.49-.3.74-.46-.89-3.54-3.74-5.96-5.68-8.79ZM188.28,234.97c.4-.09.8-.19,1.2-.28-.88-3.31-1.75-6.62-2.63-9.92-.24.06-.48.12-.72.18.72,3.34,1.43,6.68,2.15,10.02ZM169.96,257.35c.31,4.28,1.72,8.14,4.32,11.54-1.44-3.85-2.88-7.69-4.32-11.54ZM199.29,130.74c-1.86-1.46-2.91-4.17-5.78-3.96,1.54,1.93,2.99,3.99,5.78,3.96ZM129.88,174.31c1.51-3.22,3.02-6.44,4.53-9.66-2.68,2.65-4.41,5.75-4.53,9.66ZM218.68,168.91c-1.38-4.13-3.59-6.7-6.08-7.25,2.25,2.68,4.16,4.97,6.08,7.25ZM177.5,150.89c-.3-3.95-2.19-7.84-4.54-9.57,1.6,3.38,3.07,6.48,4.54,9.57ZM154.96,276.14c-.19.08-.38.15-.57.23,1.3,3.41,2.59,6.83,3.89,10.24.31-.12.61-.24.92-.36-1.41-3.37-2.82-6.74-4.23-10.11ZM183.27,179.87c-.44,3.21.83,5.87,3.23,8.09-1.08-2.7-2.15-5.39-3.23-8.09ZM180.7,127.21c3.3,3.98,5.23,4.97,6.63,3.39-2.13-1.09-4.22-2.16-6.63-3.39ZM173.16,189.11c-.16-2.75-.33-5.5-.49-8.26-1.16,2.79-1.2,5.55.49,8.26ZM199.62,161.56c-.23.12-.45.24-.68.36.82,1.87,1.63,3.74,2.45,5.62.26-.12.53-.23.79-.35.33-2.4-1.41-3.89-2.56-5.64ZM206.74,109.2c1.62,1.69,4.19,1.76,6.5.34-2.16-1.35-4.21-.48-6.5-.34ZM208.43,162.88c.26-.15.53-.3.79-.44-.84-1.65-1.67-3.31-2.51-4.96l-.68.34c.25,1.95.51,3.89,2.4,5.06ZM229.6,122.83c-.1.33-.2.66-.3.99,2.22.67,4.44,1.34,6.66,2,.1-.32.19-.63.29-.95-2.22-.68-4.44-1.36-6.65-2.04ZM176.64,229.88c.98,3.29,1.95,6.58,2.96,9.97.6-2.22-.47-5.96-2.96-9.97ZM186.69,128.37c1.84,1.87,3.55,2.26,5.09,1.2-1.53-1.09-3-2.15-5.09-1.2ZM231.56,103.39c0-.18,0-.36,0-.54h-7.91c0,.18,0,.36,0,.54h7.91ZM190.31,210.61c-.21.02-.42.04-.63.07.61,3.23,1.22,6.46,1.83,9.7.21-.04.42-.08.63-.12-.61-3.21-1.22-6.43-1.82-9.64ZM144.53,169.06c-.27-.05-.54-.1-.82-.15-.73,2.47-1.45,4.95-2.18,7.42.27.08.53.16.8.25.73-2.5,1.47-5.01,2.2-7.51ZM210.1,202.77c.17-.09.34-.19.51-.28-.95-2.15-1.9-4.3-2.85-6.44-.72,2.91,1.13,4.68,2.34,6.72ZM127.3,184.33c.24.1.48.2.73.3.92-2.18,1.84-4.35,2.75-6.53-.26-.11-.52-.22-.79-.33-.9,2.19-1.79,4.37-2.69,6.56ZM229.71,108.54c-1.81-2.41-3.19-2.83-5.58-1.67,1.67.5,3.35,1,5.58,1.67ZM154.6,246.97c.26-.08.51-.16.77-.24-.57-2.41-1.14-4.82-1.7-7.23-.25.06-.5.12-.74.17.56,2.43,1.12,4.86,1.68,7.29ZM173.64,158.62c-.25.12-.49.23-.74.35,1,2.13,2.01,4.25,3.01,6.38.24-.12.49-.23.73-.35-1-2.13-2-4.25-3-6.38ZM161.09,256.69c-.19.04-.37.08-.56.13.92,2.56,1.83,5.12,2.75,7.68.26-.1.52-.19.79-.29-.99-2.51-1.98-5.01-2.97-7.52ZM166.48,191.77c.22-.03.44-.05.66-.08-.28-2.8-.55-5.61-.83-8.41-.44,2.87-.42,5.66.17,8.49ZM203.95,138.35c.19-.29.38-.57.56-.86-1.4-.92-2.79-1.84-4.19-2.76-.18.28-.36.55-.54.83,1.39.93,2.78,1.87,4.17,2.8ZM157.5,152.77c-.28.06-.56.11-.84.17.42,2.21.85,4.43,1.27,6.64.19-.04.38-.07.57-.11l-1-6.7ZM180.3,213.09c-.2.05-.39.09-.59.14.64,2.6,1.27,5.2,1.91,7.79.23-.06.46-.12.69-.18l-2-7.75ZM197.85,166.35c.25-.13.49-.26.74-.38-.89-1.54-1.79-3.08-2.68-4.61-.27.16-.53.31-.8.47.91,1.51,1.83,3.02,2.74,4.53ZM217.16,110.59c-.05.28-.1.57-.15.85,1.85.34,3.69.68,5.54,1.02.05-.27.1-.54.15-.81-1.84-.35-3.69-.71-5.53-1.06ZM194.84,154.57c.18-.21.36-.43.55-.64-1.43-1.2-2.86-2.41-4.29-3.61.92,1.8,1.94,3.5,3.74,4.26ZM192.59,145.15c.17-.2.34-.4.51-.6-1.48-1.19-2.96-2.38-4.43-3.57-.12.14-.23.27-.35.41,1.43,1.25,2.85,2.51,4.28,3.76ZM149.81,281.4q.3,3.78,2.15,4.43c-.78-1.61-1.47-3.02-2.15-4.43ZM166.11,165.28c.26-.17.52-.33.78-.5-.89-1.29-1.78-2.58-2.67-3.88-.18.12-.36.23-.54.35.81,1.34,1.62,2.69,2.43,4.03ZM194.32,134.68c.22-.26.44-.51.66-.77-1.05-.79-2.1-1.59-3.15-2.38-.17.2-.35.4-.52.6,1,.85,2,1.7,3.01,2.55Z"/>
    <path class="cls-3" d="M365.41,218.23c-.52-.76-1.27-1.17-2.24-1.22-.5,1.81-.3,2.42.04,4.2-2.08-.44-5.3,1.03-5.61,3.42-.34,2.59,2.29,2.36,2.85,4.68-1.44.11-2.8.2-4.39.32-.05,3.81-2.43,6.41-4.64,9.2-2.51,3.17-4.78,6.51-7.21,9.74-2.39,3.17-5.43,6.2-7.4,9.63-1.95,3.4-1.03,4.76,2.35,3-4.98,7.38-9.86,14.59-14.96,22.14-.27-.36-.67-.88-1.07-1.41,3.04-2.87,4.21-6.94,2.4-8.47-3.17,3.94-7.81,7.2-5.93,12.54.4,1.13,2.08,1.56,1.09,2.89-1.23,1.65-4.98-1.75-6.06-2.47,1.22,2.09.61,4.83,3.76,5.42-.54,1.12-1.01,2.07-1.72,3.53-1.4-1.38-2.6-2.57-3.8-3.76-2.27,1.56-2.26,1.58,1.75,5.73-.66.88-1.33,1.78-2.14,2.87-1.85-1.76-2.79-3.11-5.32-3.29.35,2.12,2.67,3.56,1.91,5.31-.33.76-1.64.15-2.17,1.07-.4.7.32,2.43.2,3.27l-.63.26c-2.08-3.11-6.86-7.68-5.81-11.51,1.2-4.37,6.82-9.41,9.5-13.05,3.5-4.76,6.86-9.62,10.29-14.43,1.5-2.11,2.89-4.51,4.52-6.5.88-1.07,2.19-1.94,2.92-2.89,1.26-1.63,1.83-4.2,3.17-5.99,1.35-1.8,2.82-3.53,4.19-5.32,3.14-4.12,6.14-7.94,8.65-12.51,5.41-9.87,8.43-19.2,9.45-30.41,6.46-.74,10.19-1.09,14.84-5.74,4.28-4.29,8.62-8.5,12.41-13.24,7.57-9.47,14.9-18.79,23.42-27.5.27.19.53.38.8.58-4.7,8.44-11.62,15.56-17.47,23.2-.7.91-1.73,3.35-2.52,4.19-.94,1-2.17,1.23-3.09,2.18-2.95,3.03-3.09,5.42-1.12,9-.42.67-1.06,1.69-1.64,2.61-1.02-1.05-2.05-2.1-3.08-3.16l-.69.28c.5,3.18,2.15,7.57-1.37,9.83-2.33,1.5-7.21-.2-4.58,4.38.7,1.22,6.35,6.33,1.63,4.5-1.41-.55-3.03-3.64-5.08-1.96-1.07.87-.05,3.57.11,4.7-.16.05-.33.1-.49.15ZM334.49,263.59c-.31-.23-.61-.46-.92-.69-1.23,1.17-2.46,2.34-3.74,3.55,1.66,4.36,3.69-1,4.65-2.86Z"/>
    <path class="cls-3" d="M151.54,66.84c-.88,1.12-1.76,2.24-2.64,3.37.19.22.39.45.58.67,4.01-4.94,8.37-9.32,15.21-10.5-.52.67-.86,1.11-1.1,1.41,6.66-3.65,16.1-11.13,24.14-10.22-3.17,1.77-5.87,3.27-8.58,4.78.09.17.17.34.26.51,4.08-1.22,8.06-2.39,12.26-3.15,2.91-.53,7.19-2.18,9.93-.93-2.66,2.67-7.3,1.68-10.21,4.29,5.83-.76,11.49-2.82,17.49-1.86-8.64,2.94-17.89,3.86-25.75,9.15,4.4-1.07,8.8-2.15,13.2-3.22l.13.47c-6.15,2.73-12.31,5.47-18.46,8.2.08.3.16.59.25.89,1.2.93,5.5-1.42,6.96-1.44-9.58,4.45-18.42,10.01-26.92,16.99.11-3.99,3.66-6.27,5.36-9.59-4.56,1.58-7.4,7.27-10.86,10.43.37-1.28.74-2.57,1.12-3.85-.18-.11-.37-.22-.55-.33-1.7,2.75-3.39,5.49-5.09,8.24-.1-.04-.19-.08-.29-.11.24-1.34.48-2.69.72-4.03-.25-.11-.5-.22-.76-.33-.84,1.65-1.68,3.3-2.52,4.95-.13-.04-.26-.08-.4-.12.14-1.25.27-2.49.41-3.74-.17-.05-.34-.1-.51-.14-1.09,1.51-2.17,3.02-3.26,4.53-.24-.09-.47-.18-.71-.27-.16-1.4-.32-2.81-.52-4.49-.51,1.03-.94,1.91-1.38,2.8-.18-.04-.36-.07-.55-.11-.24-5.47-1.25-8.12,2.31-12.78,3.1-4.05,6.25-7.93,10.28-11.03.14.19.27.39.41.58ZM165.53,65.65c-3.14-.09-10.38,6.31-10.08,9.59,2.92-4.09,7.91-5.18,10.08-9.59ZM179.75,59.63c-4.51,1.14-8.44,2.64-11.83,5.61,1.59.6,9.91-3.33,11.83-5.61ZM167.4,70.69c4.24-.19,6.5-4.31,10.33-5.38-4.13.39-7.6,2.08-10.33,5.38ZM159.65,75.54c.12.14.24.28.36.42,1.53-1.14,3.05-2.29,4.98-3.73-2.7-.57-3.97.39-5.34,3.32Z"/>
    <path class="cls-3" d="M232.25,406.15c-.9-3.06-1.83-3.1-4.72-.4.24,1.26,2.46,2.4.31,4.08-2.36-1.27-5.5-4.76-5.56-7.63-.07-3.15,3.75-6.38,5.58-8.68,5.3-6.69,10.61-13.36,15.68-20.23,5.13-6.95,10.23-13.93,15.37-20.87,4.53-6.11,9.04-15.11,15.17-19.67.11,2.23.81,4.25.3,6.48-.38,1.65-1.63,2.18-.79,4.05.55,1.24,2.3.51,2.71,1.97.32,1.15-.99,3-1.46,3.93-.7-.57-1.35-1.1-2.27-1.84-1.66,3.58-3.57,6.19-3.19,10.36-2.97-1.13-2.19-.55-3.54,1.26-.24.32-1.11,1.21-1.13,1.49-.08.82.41,1.22.39,1.84-.13,5.18-1.73,4.78-6.46,2.98,0,3.87-.34,5.01-2.56,7.94-2.18,2.86-1.68,2.42-.92,5.72-1.13-.34-1.95-.59-3.19-.97-.82,1.07-1.81,2.37-2.85,3.72,1.07.53,1.81.89,2.6,1.27q-1.14,1.41-3.49-.09c-1.41,1.88-3.51,3.83-4.2,6.13-.69,2.31-.09,3.02-1.28,4.51,0,0-1.47.17-1.71.33-1.19.81-2.04,2.63-2.88,3.85-1.96,2.83-3.89,5.67-5.89,8.47Z"/>
    <path class="cls-3" d="M198.54,433.88c1.93,1.15,3.61,2.15,5.5,3.28-3.17,4.31-14.89,14.77-10.52,20.24-1.69,2.91-1.79,1.82-4.42,2.5-3.4.87-2.65,1.42-2.23,5.66-1.51.08-2.32-1.33-3.89-1.02-1.3.26-2.85,3.04-3.65,4-2.91,3.52-4.71,5.61-1.53,9.58-.29.27-.57.55-.86.82-2.08-3.19-2.99-3.31-5.68-.55-2.07,2.13-4.26,4.04-3.98,7.05.22.01.44.03.66.04-.56.85-1.12,1.71-1.68,2.56-.83-.5-1.64-.99-2.52-1.52-2.08,3.12-5.66,5.92-7.35,9.15-1.65,3.15,1.49,3.38.86,5.81-1.26-1.47-5.17-4.7-5.48-6.57-.38-2.3,3.01-4.86,4.38-6.41,5.01-5.72,9.86-11.59,14.51-17.6,9.46-12.21,18.6-24.69,27.9-37.03Z"/>
    <path class="cls-3" d="M110.18,117.52c5.03-6.27,10.84-11.4,16.84-16.76,2.82-2.52,5.03-5.78,9.05-5.37,3.27.34,6.47,2.51,9.38,3.89-.93.79-6.73,4.41-6.45,5.66.69,3.09,6.58.83,7.81.41,1.56-.53,1.53-1.15,3.2-.62,1.45.46,3.26,2.5,4.27,3.55,2.1,2.2,4.69,4.96,5.96,7.77-3.43-1.43-5.97-3.59-9.73-4.33-4.29-.85-8.85-.87-13.18-.49-9.16.79-18.24,4.05-27.13,6.28Z"/>
    <path class="cls-3" d="M114.21,556.14c3.71-8.64,6.51-18.29,11.26-26.42,2.34-4.02,5.67-7.56,8.65-11.1,3.01-3.58,5.96-8.27,9.72-11.07,2.44,5.24-3.36,9.49-6.28,13.37-2.67,3.55-4.29,7.95-7.73,10.86-3.7,3.14-3.77,6.57-6.16,10.76-2.72,4.75-6.06,9.24-9.07,13.81-.13-.07-.26-.14-.38-.21Z"/>
    <path class="cls-3" d="M205.24,396.51c2.01.35,4.03.69,6.59,1.13-1.13.94-1.78,1.48-2.59,2.15.21,2.43,2.02,1.43,3.5,2.25,2.17,1.2,3.15,3.24,4.54,5.36-1.23,1.14-2.23,2.77-3.69,2.03-1.41-.71-2.62-5.05-3.23-6.36-.96,1.37-1.63,2.33-2.3,3.28.12.08.25.15.37.23-.97.38-1.94.75-2.91,1.13.04.15.09.31.13.46,5.06-.52,6.04,4.98,7.86,8.79-2.15-.39-4.43-1.06-6.03,2.02-1.32-5.28-2.29-10.49-3.08-15.89-.89-6.06.82-9.5,3.12-15.07,1,.74,2.02,1.5,3.28,2.43.18,2.77-3.75,3.93-5.66,5.35.04.23.08.46.12.69Z"/>
    <path class="cls-3" d="M250.8,420.55c4.75,26.43,9.25,52.89,17.47,78.59-6.21-11.15-9.27-25.2-11.58-37.66-2.46-13.2-5.88-27.46-5.88-40.93Z"/>
    <path class="cls-3" d="M219.13,379.26c2.34,1.07,6.19,2.05,6.78,4.96.43,2.13-1.79,7.26-3.35,8.54-7.75,6.35-3.9-10.5-3.44-13.5Z"/>
    <path class="cls-3" d="M214.49,370.4c3.58,2.22.84,3.49-1.75,5.37,1.1.41,1.68.63,2.27.84q-1.03,3.65-3.7,5.38c2.8,4.21.52,5.5-3.64,5.5,1.9-6.34,3.65-12.88,6.13-19.02,2.88-7.14,6.1.75.75,1.35-.02.19-.04.39-.06.58Z"/>
    <path class="cls-3" d="M197,95.18c1.49,5.85-3.54,11.43-9.06,12.94-3.99,1.09-16.5-.95-13.58-7.61,3.39,4.37,9.2,6.8,14.65,5.01,4.65-1.53,6.21-5.89,7.24-10.27.25-.02.5-.05.75-.07Z"/>
    <path class="cls-3" d="M155.62,506.55c-2.54,0-16.03-7.53-11.73-9.96,3.41-1.93,10.54,7.26,11.73,9.96Z"/>
    <path class="cls-3" d="M152.81,119.9c-9.84,1.49-19.3-1.35-28.71.32,14.73-3.26,24.87-3.39,28.71-.32Z"/>
    <path class="cls-3" d="M308.84,328.1c-3.43-.11-6.34-1.27-8.87-3.58-1.51-1.39-6.38-5.1-4.11-6.78,2.96-2.17,4.26,1.88,5.6,3.51,1.52,1.83,6.82,4.75,7.37,6.85Z"/>
    <path class="cls-3" d="M288.93,306.72c.39-1.79.79-3.58,1.27-5.75-1.05.32-1.89.57-2.9.87-.32-.92-.67-1.91-1.09-3.1-2.79,3.35-.4,6.47-.12,9.61-1.28-2.52-5.99-12.9.42-12.68,2.13.07,3.7,3.86,4.6,5.36,2.05,3.42,1.55,3.48-1.59,5.79-.2-.04-.39-.07-.59-.11Z"/>
    <path class="cls-3" d="M299.4,228.76c-1.86-3.94-3.77-7.84-5.47-11.85-1.2-2.84-4.08-7.43-3.73-10.62,5.79,6.32,8.69,13.79,9.2,22.47Z"/>
    <path class="cls-3" d="M281.68,328.11c-3.3.95-5.42.99-3.08-2.75-.19-.17-.37-.34-.56-.51-.74.42-1.48.85-2.59,1.48-1.24-1.78-2.82-9.92,1.42-8.61,1.89.59,1.37,2.39,1.76,3.89.61,2.36,2.03,4.31,3.05,6.5Z"/>
    <path class="cls-3" d="M276.07,202.56c3.38,2.54,12.51,11.82,7.92,16.33-2.87-5.42-5.67-10.7-8.47-15.99.19-.11.37-.23.56-.34Z"/>
    <path class="cls-3" d="M273.52,236.89c5.01,4.51,7.64,10.3,8.75,16.91-3.96-5.06-7.42-10.39-8.75-16.91Z"/>
    <path class="cls-3" d="M195.3,90.9c-2.38-2.97-5.67-4.17-9.39-4.17-4.27,0-7.61,3.27-11.54,3.19,2.59-3.4,6.21-5.46,10.53-5.43,3.62.03,10.5,1.62,10.39,6.41Z"/>
    <path class="cls-3" d="M114.09,208.17c-.06,6.54-2.02,12.67-3.95,19.08-1.95-3.07.86-17.06,3.95-19.08Z"/>
    <path class="cls-3" d="M212.03,419.21c1.3,2.38,2.79,5.1,4.28,7.81-.1.16-.2.33-.3.49-2.05-1.57-3.35-.26-4.69,1.07-1.37-2.47-2.67-4.83-3.82-6.9,1.57-.86,2.91-1.59,4.53-2.47Z"/>
    <path class="cls-3" d="M201.49,416.45c3.09,6.42,6.2,12.88,9.31,19.34-.13.08-.25.16-.38.24-2.53-2.93-5.06-5.86-7.59-8.79.25-.1.49-.21.74-.31-.59-3.25-3.51-7.19-2.07-10.47Z"/>
    <path class="cls-3" d="M255.09,245.52c3.84,5.09,5.85,10.95,7.26,17.06-4.36-4.87-7.3-10.34-7.26-17.06Z"/>
    <path class="cls-3" d="M212.15,240.98c2.78,4.93,5.56,9.87,8.48,15.05-4.22-.43-9.17-8.76-9.19-14.69.24-.12.48-.24.71-.36Z"/>
    <path class="cls-3" d="M223.85,417.94c3.55,3.17,7.09,6.33,11.06,9.88-5.81-1.37-11.84-3.02-11.84-9.72.26-.05.52-.11.77-.16Z"/>
    <path class="cls-3" d="M245.65,250.52c-5-3.8-8.67-8.52-10.54-14.88,5.1,4.07,8.42,9.05,10.54,14.88Z"/>
    <path class="cls-3" d="M289.03,340.88c-3.09.36-11.4-4.91-9.11-8.6,1.46-2.36,3.47,0,4.26,1.22,1.79,2.74,2.22,5.01,4.85,7.38Z"/>
    <path class="cls-3" d="M286.65,315.99c-1.43.1-2.77.2-4.26.31-.08-.56-.16-1.15-.29-2-.49.96-.88,1.72-1.43,2.81-.32-2.07-4.23-4.3-.83-6.59,3.19-2.14,5.68,3.48,6.8,5.47Z"/>
    <path class="cls-3" d="M394.25,180.57c-2.26,3.48-4.74,9.5-8.86,10.54-.82-5.02,4.69-8.99,8.86-10.54Z"/>
    <path class="cls-3" d="M290.64,325.47c1.38,2.6,2.64,4.98,3.83,7.24-1.2.83-2.28,1.58-3.12,2.16-1.19-1.92-2.39-3.84-3.59-5.75.85-1.08,1.73-2.19,2.88-3.65Z"/>
    <path class="cls-3" d="M249.33,152.51c-4.46-1.99-10.93-3.64-14.47-7,3.21-1.2,11.18,2.47,14.47,7Z"/>
    <path class="cls-3" d="M287.55,318.1c.84,1.77,1.62,3.44,2.13,4.5-1.12,1.28-2.05,2.33-2.98,3.38-2.15-3.97-4.74-6.69.85-7.88Z"/>
    <path class="cls-3" d="M306.32,228.94c-1.65-5.57-3.16-10.66-4.71-15.92,3.14,1.25,6.44,12.19,4.71,15.92Z"/>
    <path class="cls-3" d="M220.67,418.89c-3.96-4.14-5.48-6.44-1.84-8.68,1.13,1.67,2.27,3.35,3.35,4.94-.5,1.24-.97,2.41-1.5,3.75Z"/>
    <path class="cls-3" d="M273.48,157.32c2.4-1.26,9.76,4.9,11.24,9.88-3.74-3.29-7.48-6.58-11.24-9.88Z"/>
    <path class="cls-3" d="M219.8,435.64c-4.82,1.03-6.84-1.62-4.97-6.27,1.85,1.7,3.41,3.57,5.04,5.47-.02.26-.04.53-.07.79Z"/>
    <path class="cls-3" d="M215.78,57.68c-4.97,1.91-10.06,3.35-15.78,4.34,2.22-2.79,12.92-5.46,15.78-4.34Z"/>
    <path class="cls-3" d="M302.61,342.14c-1.73.02-8.97-2.3-8.87-4.65.21-5.07,8.32,4.01,8.87,4.65Z"/>
    <path class="cls-3" d="M289.38,250.41c-1.89-4.65-3.78-9.29-5.68-13.94.21-.09.42-.18.64-.27,2.76,4.3,5.89,8.44,5.83,13.95-.26.09-.53.17-.79.26Z"/>
    <path class="cls-3" d="M264.48,173.95c-4.69-.84-6.34-4.68-9.07-7.63,2.93-.26,7.82,3.87,9.07,7.63Z"/>
    <path class="cls-3" d="M222.73,286.51c-3.7-3.25-4.94-7.81-6.2-12.37,3.33,3.44,5,7.76,6.2,12.37Z"/>
    <path class="cls-3" d="M224.26,80.29c-5,1.74-9.99,3.48-14.99,5.22-.12-.36-.23-.72-.35-1.08,5.02-1.78,9.66-4.73,15.27-4.67.02.18.04.35.07.53Z"/>
    <path class="cls-3" d="M225.95,279.33c2.18,4.11,4.36,8.22,6.54,12.33-.23.12-.46.25-.69.37-2.81-3.77-6.09-7.29-6.7-12.25.28-.15.57-.31.85-.46Z"/>
    <path class="cls-3" d="M268.09,248.08c-3.02-3.59-5.43-7.46-6.08-12.21,3.01,3.57,5.11,7.62,6.08,12.21Z"/>
    <path class="cls-3" d="M225.91,255.54c-3.41-3-6.19-6.43-7.41-10.92,3.32,3.06,5.54,6.87,7.41,10.92Z"/>
    <path class="cls-3" d="M288.56,189.79c-4.37-2.84-6.57-6.42-5.01-9.24,1.97,3.14,3.78,6.02,5.59,8.91l-.58.33Z"/>
    <path class="cls-3" d="M303.18,259.11c-1.53-5.48-4.33-10.35-5.84-15.89,3.65,4.02,6.08,10.58,5.84,15.89Z"/>
    <path class="cls-3" d="M287.08,277.81c1.45,4.33,3.71,8.47,3.04,13.31-.2.05-.4.09-.6.14l-3.11-13.29c.22-.05.45-.11.67-.16Z"/>
    <path class="cls-3" d="M291.23,311.94c-1.47-2.58,1.09-4.03,2.18-6.51,1.07,1.49,1.87,2.61,2.78,3.88-1.77.94-3.3,1.75-4.97,2.63Z"/>
    <path class="cls-3" d="M282.02,191.56c-2.33-3.76-4.65-7.53-6.98-11.29.18-.11.35-.23.53-.34,3.46,3.04,5.34,7.09,7.24,11.12l-.8.5Z"/>
    <path class="cls-3" d="M133.19,534.09c-.57,1.4-1.31,5.53-3.64,4.67-2.98-1.1,1.74-4.69,2.52-5.43.37.26.74.51,1.12.77Z"/>
    <path class="cls-3" d="M209.93,90.06c2.58-3.09,5.68-4.17,9.09-4.62-1.14,2.09-5.89,4.61-9.09,4.62Z"/>
    <path class="cls-3" d="M289.78,186.37c1.9-.13,4.63,3.85,4.89,7.15-1.9.08-2.45-.74-4.89-7.15Z"/>
    <path class="cls-3" d="M238.05,151.49c-3.53-.84-5.32-1.49-8.1-3.84,1.76-.77,6.86,1.3,8.1,3.84Z"/>
    <path class="cls-3" d="M207.15,64.86c-3.42,1.04-6.84,2.09-10.23,3.12-.26-1.61,7.24-4.38,10.23-3.12Z"/>
    <path class="cls-3" d="M183,346.88c3.05,2.32,6.1,4.64,9.15,6.96l-.59.79c-3.07-2.29-6.14-4.59-9.21-6.88.22-.29.43-.58.65-.87Z"/>
    <path class="cls-3" d="M262.13,165.02c2.01,2.36,4.03,4.72,6.39,7.49-2.06-.11-6.03-4.5-6.99-6.93.2-.18.4-.37.6-.55Z"/>
    <path class="cls-3" d="M269.56,224.6c-1.67-2.76-3.33-5.52-5-8.28.17-.11.34-.21.51-.32,3.44,1.66,3.18,5.66,5.34,8.13-.29.16-.57.31-.86.47Z"/>
    <path class="cls-3" d="M271.49,296.12c-2.55-2.66-3.47-6.02-4.29-9.43.17-.08.33-.16.5-.24,1.52,3.2,2.73,6.28,3.79,9.66Z"/>
    <path class="cls-3" d="M201.21,335.08c-2.77-2.82-6.62-4.58-8.54-8.25.19-.19.38-.38.57-.56,2.66,2.94,5.32,5.88,7.97,8.82Z"/>
    <path class="cls-3" d="M183.48,96.34c-1.76-2.37-2.13-2.24.14-4.4,2.16,2.27,1.7,2.19-.14,4.4Z"/>
    <path class="cls-3" d="M257.94,135.3c-1.81-1.73-3.62-3.45-5.8-5.52,2.94-.05,5.77,2.56,6.26,5.1-.15.14-.31.28-.46.42Z"/>
    <path class="cls-3" d="M253.23,289.73c1.19,2.97,2.39,5.93,3.58,8.9l-.86.36c-1.29-2.95-2.59-5.91-3.88-8.86l1.15-.4Z"/>
    <path class="cls-3" d="M299.01,313.92q-4.22-.17-5.75,1.21c-.49-3.59,5.03-4.83,5.75-1.21Z"/>
    <path class="cls-3" d="M254.72,275.23c-1.39-2.94-2.77-5.88-4.16-8.82.3-.15.6-.29.9-.44,1.42,2.92,2.84,5.85,4.26,8.77-.34.16-.67.32-1.01.49Z"/>
    <path class="cls-3" d="M251.4,146.41c2.56,1.09,5.24,2.02,6.92,4.45l-.36.57c-2.34-1.46-4.68-2.92-7.02-4.37l.46-.64Z"/>
    <path class="cls-3" d="M207.49,78.9c3.32-1.02,6.63-2.05,9.95-3.07l.26.9c-3.35,1.03-6.69,2.05-10.04,3.08-.06-.3-.11-.61-.17-.91Z"/>
    <path class="cls-3" d="M205.5,321.49c2.34,2.89,4.69,5.78,7.03,8.67-.18.15-.36.31-.53.46-2.43-2.81-4.85-5.62-7.28-8.43.26-.23.52-.46.78-.69Z"/>
    <path class="cls-3" d="M235.37,279.13c1.4,2.6,2.8,5.21,4.21,7.81-.32.17-.63.33-.95.5-1.35-2.62-2.71-5.25-4.06-7.87.27-.15.53-.29.8-.44Z"/>
    <path class="cls-3" d="M245.81,90.7c-2.71.18-4.97.34-7.37.5.75-2.14,5.03-2.48,7.37-.5Z"/>
    <path class="cls-3" d="M257.6,140.19c-2.72-.4-4.13-2.43-5.48-4.53,2.65.46,4.07,2.48,5.48,4.53Z"/>
    <path class="cls-3" d="M173.57,94.67c-.88,1.77-1.62,3.26-2.36,4.75-.24.02-.48.04-.71.07-.35-2.45-.16-4.86,3.07-4.82Z"/>
    <path class="cls-3" d="M225.87,307.33c1.53,2.46,3.05,4.93,4.58,7.39l-.74.47c-1.58-2.4-3.15-4.8-4.73-7.21.3-.22.59-.43.89-.65Z"/>
    <path class="cls-3" d="M222.18,317c-1.84-2.35-3.67-4.69-5.51-7.04l.79-.6c1.78,2.39,3.55,4.78,5.33,7.17-.2.16-.41.31-.61.47Z"/>
    <path class="cls-3" d="M260.7,130.44c-1.77-1.66-3.54-3.32-5.43-5.1,2.26-.2,3.98,1.17,5.93,4.51-.17.2-.33.39-.5.59Z"/>
    <path class="cls-3" d="M241.99,269.39c-1.25-2.46-2.5-4.91-3.75-7.37.2-.1.41-.21.61-.31,2.11,2.02,2.6,4.86,3.63,7.43-.16.08-.33.17-.49.25Z"/>
    <path class="cls-3" d="M272.3,193.03c-1.36-2.55-2.71-5.11-4.07-7.66.19-.11.38-.21.56-.32l4.3,7.54c-.26.15-.52.29-.79.44Z"/>
    <path class="cls-3" d="M195.35,348.94c2.45,1.76,4.89,3.51,7.34,5.27-.12.18-.25.35-.37.53l-7.45-5.18c.16-.21.32-.42.48-.63Z"/>
    <path class="cls-3" d="M185,71.75c2.09-.95,4.19-1.89,6.28-2.84.13.28.26.56.39.84-2.07.95-4.14,1.89-6.22,2.84-.15-.28-.3-.56-.46-.84Z"/>
    <path class="cls-3" d="M259.11,491.65c-.57,3.91-1.15,7.82-1.72,11.74-.14-.02-.29-.04-.43-.05.54-3.91,1.08-7.81,1.62-11.72.18.01.36.03.54.04Z"/>
    <path class="cls-3" d="M237.91,343.72l-4.4-6c.25-.18.5-.36.75-.55,1.41,2.02,2.82,4.05,4.23,6.07-.2.16-.39.31-.59.47Z"/>
    <path class="cls-3" d="M211.57,92.18c2.26-1.09,4.52-2.19,6.78-3.28.13.25.25.5.38.75-2.23,1.09-4.47,2.17-6.7,3.26-.15-.24-.31-.49-.46-.73Z"/>
    <path class="cls-3" d="M311.28,218.84c-.78-2.25-1.57-4.49-2.35-6.74.24-.08.48-.16.72-.24.78,2.24,1.57,4.49,2.35,6.73-.24.08-.48.16-.72.25Z"/>
    <path class="cls-3" d="M266.64,190.1l2.26,4.06c-.32.17-.64.35-.96.52-.75-1.39-1.5-2.79-2.26-4.18.32-.13.63-.26.95-.4Z"/>
    <path class="cls-3" d="M181.97,358.64c-2.32-1.86-4.64-3.72-6.97-5.59.11-.14.21-.27.32-.41,2.38,1.82,4.76,3.64,7.14,5.47-.16.18-.33.35-.49.53Z"/>
    <path class="cls-3" d="M255.51,90.88c1.9,1.08,3.79,2.15,5.69,3.23-.12.22-.25.44-.37.66-1.89-1.07-3.79-2.13-5.68-3.2.12-.23.24-.46.36-.69Z"/>
    <path class="cls-3" d="M196.6,453.52l-1.68-1.61c.6-.5,1.19-1,2.17-1.82v3.03c-.17.13-.33.26-.5.39Z"/>
    <path class="cls-3" d="M273.43,144.42c1.08.93,2.15,1.86,3.23,2.79-.13.16-.26.32-.39.48-1.66-.19-2.47-1.48-3.35-2.69l.51-.58Z"/>
    <path class="cls-3" d="M199.41,344.09c-1.85-1.35-3.69-2.71-5.54-4.06.12-.17.25-.34.37-.52,1.86,1.34,3.73,2.68,5.59,4.03-.14.18-.28.37-.43.55Z"/>
    <path class="cls-1" d="M132.72,225.45c-.48,11.07-.48,21.78.07,32.85l-.66.18c-3.06-4.9-5.08-7.99-5.96-13.81-.87-5.76-.48-9.89.91-15.48.27,4.85.55,10.02.84,15.18.28.05.55.09.83.14,2.11-6.14,1.35-13.09,3.96-19.06Z"/>
    <path class="cls-1" d="M224.16,157.9c6.57,3.18,12.66,5.96,18.35,10.63,4.54,3.72,10.67,6.78,11.16,13.12-3.11-.91-4.18-2.78-6.5-4.96-2.42-2.27-5.18-4.14-7.85-6.11-5.45-4.04-10.97-7.32-15.16-12.67Z"/>
    <path class="cls-1" d="M139.26,243.68c1.78,8.58,3.56,17.16,5.34,25.74-4.92-7.89-6.99-16.4-5.34-25.74Z"/>
    <path class="cls-1" d="M196.64,125.08l6.53,4.16c.15-.22.3-.44.45-.66-1.85-1.57-3.69-3.14-5.64-4.79,2.79-1.3,4.77,1.24,6.17,3.15.73.99,3.91,3.75,3.36,5.06-1.39,3.35-10.42-5.43-11.25-6.51.12-.14.24-.28.36-.42Z"/>
    <path class="cls-1" d="M219.04,158.04c4.21,4.16,15.5,8.67,16.84,14.79-6.98-3.52-12.61-8.38-16.84-14.79Z"/>
    <path class="cls-1" d="M133.43,186.17c-2.37,6.25-4.75,12.49-7.23,19.02-4.27-3.74,4.74-15.17,6.54-19.28.23.09.46.18.68.27Z"/>
    <path class="cls-1" d="M238.33,174.25c3.2,0,11.2,7.04,12.81,11.01-5.57-2.28-8.65-6.97-12.81-11.01Z"/>
    <path class="cls-1" d="M156.88,324.21c-6.57-4.22-8.02-11.66-11.75-18.11,2.42.52,3.31,2.23,3.91,3.77,2.01,5.13,4.48,9.96,7.84,14.34Z"/>
    <path class="cls-1" d="M234.26,175.46c4.21,1.75,6.54,5.05,9.17,8.2-2.4.58-8.36-4.67-9.17-8.2Z"/>
    <path class="cls-1" d="M198.19,144.56c3.56,2.18,7.69,3.6,10.07,7.59-3.13.47-6.7-2.21-10.07-7.59Z"/>
    <path class="cls-1" d="M151.09,301.8c3.38,3.91,5.49,8.34,5.51,11.4-1.94-.27-5.32-7.12-5.51-11.4Z"/>
    <path class="cls-1" d="M192.52,270.83c-3.92-4.24-6.65-9.1-7.77-15.33,2.9,5.31,5.57,10.21,8.24,15.11l-.47.23Z"/>
    <path class="cls-1" d="M222.89,171.61c3.08,3.44,5.94,6.65,8.8,9.85-3.61-.63-9.31-7.15-8.8-9.85Z"/>
    <path class="cls-1" d="M136.46,213.11c-1.43-2.7.29-12.55,2.84-14.24-.93,4.65-1.85,9.29-2.84,14.24Z"/>
    <path class="cls-1" d="M201.38,255.83c-2.69-4.76-6.83-8.8-7.21-15.16,2.74,5.18,5.29,10.01,7.84,14.83-.21.11-.42.22-.63.32Z"/>
    <path class="cls-1" d="M181.07,266.9c-3.87-3.97-5.29-8.82-5.58-14.11,1.86,4.7,3.72,9.41,5.58,14.11Z"/>
    <path class="cls-1" d="M135.2,270.6c1.19,4.31,2.39,8.63,3.58,12.94-.2.05-.4.11-.6.16-2.66-3.93-3.99-8.21-2.98-13.1Z"/>
    <path class="cls-1" d="M140.49,165.43c-1.33,3.79-2.67,7.59-4,11.38-.97-3.39.72-8.23,3.52-11.63.16.08.32.16.48.25Z"/>
    <path class="cls-1" d="M205.99,118.95c3.53-.76,5.96,1.27,8.58,2.81,0,.26-.02.51-.03.77-3.42.36-5.68-1.8-8.56-3.58Z"/>
    <path class="cls-1" d="M151.26,198.64c-1.82-2.99-1.24-9.55,1.22-11.82-.39,3.81-.78,7.61-1.22,11.82Z"/>
    <path class="cls-1" d="M151.41,262.03c-3.41-4.71-2.84-10.22-3.71-15.44.16-.03.33-.07.49-.1,1.07,5.18,2.15,10.36,3.22,15.54Z"/>
    <path class="cls-1" d="M130.03,211.49c.52-4.15,1.41-8.22,3.64-11.88-.06,4.29-1.83,8.07-3.64,11.88Z"/>
    <path class="cls-1" d="M207.8,125.66c-1.78-.92-4.03-2.08-6.28-3.24.12-.3.24-.6.36-.91,2.88.83,5.77,1.65,8.96,2.56-1.12.59-1.89.98-3.03,1.58Z"/>
    <path class="cls-1" d="M218.32,118.33c-2.89-.74-5.77-1.48-8.66-2.22.03-.26.07-.52.1-.77,2.63-1.24,7.54.49,8.98,2.68-.14.1-.28.21-.42.31Z"/>
    <path class="cls-1" d="M146.92,190.49c-.89,3.89-1.78,7.79-2.66,11.68-.21-.05-.43-.1-.64-.15.13-4.07.51-8.08,2.58-11.7.24.06.48.11.73.17Z"/>
    <path class="cls-1" d="M164.56,140.23c1.55,2.89,3.09,5.79,4.64,8.68-2.87-.74-5.34-5.46-4.64-8.68Z"/>
    <path class="cls-1" d="M212.37,176.6c2.66,2.5,5.59,4.77,6.82,8.4-2.37-2.73-5.93-4.48-6.82-8.4Z"/>
    <path class="cls-1" d="M238.65,98.11c-3.1-.2-6.2-.4-9.64-.63,2.09-1.64,7.99-1.57,9.66-.17,0,.26-.02.53-.02.79Z"/>
    <path class="cls-1" d="M158.72,194.94c-1.17-4.7-.55-9.26,1.55-14.07-.55,4.99-1.05,9.53-1.55,14.07Z"/>
    <path class="cls-1" d="M221.85,103.8c-2.54,2.6-5.23.23-7.87.29,2.51-2.51,5.25.2,7.87-.29Z"/>
    <path class="cls-1" d="M181.72,145.01c2.41,2.84,4.82,5.68,7.24,8.53-3.12-.99-6.59-5.06-7.24-8.53Z"/>
    <path class="cls-1" d="M190.06,167.19c-1.52-2.66-3.03-5.31-4.55-7.97.23-.13.47-.26.7-.39,1.37,2.74,4.53,4.48,4.46,8.04-.2.11-.4.22-.61.32Z"/>
    <path class="cls-1" d="M168.47,135.27l2.4,7.9c-.23.07-.46.14-.68.21-1.75-2.33-3.06-4.81-2.42-7.9.23-.07.47-.14.7-.22Z"/>
    <path class="cls-1" d="M189.16,247.7c1.46,3.62,2.92,7.24,4.38,10.86-.17.07-.34.13-.51.2-1.89-3.45-4.12-6.77-3.87-11.06Z"/>
    <path class="cls-1" d="M171.82,281.71c1.94,2.83,4.79,5.25,5.68,8.79-.25.15-.49.3-.74.46-1.79-3.04-3.41-6.07-4.94-9.25Z"/>
    <path class="cls-1" d="M188.28,234.97c-.72-3.34-1.43-6.68-2.15-10.02.24-.06.48-.12.72-.18.88,3.31,1.75,6.62,2.63,9.92-.4.09-.8.19-1.2.28Z"/>
    <path class="cls-1" d="M169.96,257.35c1.44,3.85,2.88,7.69,4.32,11.54-2.6-3.4-4.01-7.27-4.32-11.54Z"/>
    <path class="cls-1" d="M199.29,130.74c-2.79.03-4.24-2.03-5.78-3.96,2.87-.2,3.92,2.5,5.78,3.96Z"/>
    <path class="cls-1" d="M129.88,174.31c.12-3.92,1.85-7.02,4.53-9.66-1.51,3.22-3.02,6.44-4.53,9.66Z"/>
    <path class="cls-1" d="M218.68,168.91c-1.92-2.29-3.83-4.57-6.08-7.25,2.49.56,4.7,3.13,6.08,7.25Z"/>
    <path class="cls-1" d="M177.5,150.89c-1.47-3.1-2.94-6.19-4.54-9.57,2.35,1.73,4.24,5.62,4.54,9.57Z"/>
    <path class="cls-1" d="M154.96,276.14c1.41,3.37,2.82,6.74,4.23,10.11-.31.12-.61.24-.92.36-1.3-3.41-2.59-6.83-3.89-10.24.19-.08.38-.15.57-.23Z"/>
    <path class="cls-1" d="M183.27,179.87c1.08,2.7,2.15,5.39,3.23,8.09-2.39-2.21-3.67-4.87-3.23-8.09Z"/>
    <path class="cls-1" d="M180.7,127.21c2.41,1.23,4.5,2.3,6.63,3.39-1.4,1.58-3.33.59-6.63-3.39Z"/>
    <path class="cls-1" d="M173.16,189.11c-1.7-2.71-1.65-5.46-.49-8.26.16,2.75.33,5.5.49,8.26Z"/>
    <path class="cls-1" d="M199.62,161.56c1.15,1.75,2.89,3.23,2.56,5.64-.26.12-.53.23-.79.35-.82-1.87-1.63-3.74-2.45-5.62.23-.12.45-.24.68-.36Z"/>
    <path class="cls-1" d="M206.74,109.2c2.29-.14,4.34-1.01,6.5.34-2.31,1.42-4.89,1.35-6.5-.34Z"/>
    <path class="cls-1" d="M208.43,162.88c-1.89-1.17-2.15-3.11-2.4-5.06l.68-.34c.84,1.65,1.67,3.31,2.51,4.96-.26.15-.53.3-.79.44Z"/>
    <path class="cls-1" d="M229.6,122.83c2.22.68,4.44,1.36,6.65,2.04-.1.32-.19.63-.29.95-2.22-.67-4.44-1.34-6.66-2,.1-.33.2-.66.3-.99Z"/>
    <path class="cls-1" d="M176.64,229.88c2.49,4.01,3.56,7.74,2.96,9.97-1.01-3.39-1.98-6.68-2.96-9.97Z"/>
    <path class="cls-1" d="M186.69,128.37c2.09-.95,3.56.1,5.09,1.2-1.55,1.07-3.25.68-5.09-1.2Z"/>
    <path class="cls-1" d="M231.56,103.39h-7.91c0-.18,0-.36,0-.54h7.91c0,.18,0,.36,0,.54Z"/>
    <path class="cls-1" d="M190.31,210.61c.61,3.21,1.22,6.43,1.82,9.64-.21.04-.42.08-.63.12-.61-3.23-1.22-6.46-1.83-9.7.21-.02.42-.04.63-.07Z"/>
    <path class="cls-1" d="M144.53,169.06c-.73,2.5-1.47,5.01-2.2,7.51-.27-.08-.53-.16-.8-.25.73-2.47,1.45-4.95,2.18-7.42.27.05.54.1.82.15Z"/>
    <path class="cls-1" d="M210.1,202.77c-1.22-2.05-3.06-3.81-2.34-6.72.95,2.15,1.9,4.3,2.85,6.44-.17.09-.34.19-.51.28Z"/>
    <path class="cls-1" d="M127.3,184.33c.9-2.19,1.79-4.37,2.69-6.56.26.11.52.22.79.33-.92,2.18-1.84,4.35-2.75,6.53-.24-.1-.48-.2-.73-.3Z"/>
    <path class="cls-1" d="M229.71,108.54c-2.23-.67-3.9-1.17-5.58-1.67,2.39-1.16,3.77-.74,5.58,1.67Z"/>
    <path class="cls-1" d="M154.6,246.97c-.56-2.43-1.12-4.86-1.68-7.29.25-.06.5-.12.74-.17.57,2.41,1.14,4.82,1.7,7.23-.26.08-.51.16-.77.24Z"/>
    <path class="cls-1" d="M173.64,158.62c1,2.13,2,4.25,3,6.38-.24.12-.49.23-.73.35-1-2.13-2.01-4.25-3.01-6.38.25-.12.49-.23.74-.35Z"/>
    <path class="cls-1" d="M161.09,256.69c.99,2.51,1.98,5.01,2.97,7.52-.26.1-.52.19-.79.29-.92-2.56-1.83-5.12-2.75-7.68.19-.04.37-.08.56-.13Z"/>
    <path class="cls-1" d="M166.48,191.77c-.6-2.83-.62-5.61-.17-8.49.28,2.8.55,5.61.83,8.41-.22.03-.44.05-.66.08Z"/>
    <path class="cls-1" d="M203.95,138.35c-1.39-.93-2.78-1.87-4.17-2.8.18-.28.36-.55.54-.83,1.4.92,2.79,1.84,4.19,2.76-.19.29-.38.57-.56.86Z"/>
    <path class="cls-1" d="M157.5,152.77l1,6.7c-.19.04-.38.07-.57.11-.42-2.21-.85-4.43-1.27-6.64.28-.06.56-.11.84-.17Z"/>
    <path class="cls-1" d="M180.3,213.09l2,7.75c-.23.06-.46.12-.69.18-.64-2.6-1.27-5.2-1.91-7.79.2-.05.39-.09.59-.14Z"/>
    <path class="cls-1" d="M197.85,166.35c-.91-1.51-1.83-3.02-2.74-4.53.27-.16.53-.31.8-.47.89,1.54,1.79,3.08,2.68,4.61-.25.13-.49.26-.74.38Z"/>
    <path class="cls-1" d="M217.16,110.59c1.84.35,3.69.71,5.53,1.06-.05.27-.1.54-.15.81-1.85-.34-3.69-.68-5.54-1.02.05-.28.1-.57.15-.85Z"/>
    <path class="cls-1" d="M194.84,154.57c-1.81-.76-2.82-2.46-3.74-4.26,1.43,1.2,2.86,2.41,4.29,3.61-.18.21-.36.43-.55.64Z"/>
    <path class="cls-1" d="M192.59,145.15c-1.43-1.25-2.85-2.51-4.28-3.76.12-.14.23-.27.35-.41,1.48,1.19,2.96,2.38,4.43,3.57-.17.2-.34.4-.51.6Z"/>
    <path class="cls-1" d="M149.81,281.4c.68,1.41,1.37,2.82,2.15,4.43q-1.85-.65-2.15-4.43Z"/>
    <path class="cls-1" d="M166.11,165.28c-.81-1.34-1.62-2.69-2.43-4.03.18-.12.36-.23.54-.35.89,1.29,1.78,2.58,2.67,3.88-.26.17-.52.33-.78.5Z"/>
    <path class="cls-1" d="M194.32,134.68c-1-.85-2-1.7-3.01-2.55.17-.2.35-.4.52-.6,1.05.79,2.1,1.59,3.15,2.38-.22.26-.44.51-.66.77Z"/>
    <path class="cls-1" d="M334.49,263.59c-.96,1.86-3,7.22-4.65,2.86,1.27-1.21,2.51-2.38,3.74-3.55.31.23.61.46.92.69Z"/>
    <path class="cls-1" d="M165.53,65.65c-2.16,4.41-7.16,5.5-10.08,9.59-.3-3.27,6.94-9.67,10.08-9.59Z"/>
    <path class="cls-1" d="M179.75,59.63c-1.92,2.28-10.24,6.21-11.83,5.61,3.39-2.97,7.32-4.47,11.83-5.61Z"/>
    <path class="cls-1" d="M167.4,70.69c2.73-3.3,6.2-4.99,10.33-5.38-3.83,1.07-6.09,5.19-10.33,5.38Z"/>
    <path class="cls-1" d="M159.65,75.54c1.37-2.93,2.64-3.89,5.34-3.32-1.92,1.44-3.45,2.59-4.98,3.73-.12-.14-.24-.28-.36-.42Z"/>
  </g>
</svg>